<?xml version="1.0" encoding="utf-8" standalone="no"?>
<!DOCTYPE svg PUBLIC "-//W3C//DTD SVG 1.1//EN"
  "http://www.w3.org/Graphics/SVG/1.1/DTD/svg11.dtd">
<!-- Created with matplotlib (http://matplotlib.org/) -->
<svg height="345pt" version="1.1" viewBox="0 0 460 345" width="460pt" xmlns="http://www.w3.org/2000/svg" xmlns:xlink="http://www.w3.org/1999/xlink">
 <defs>
  <style type="text/css">
*{stroke-linecap:butt;stroke-linejoin:round;}
  </style>
 </defs>
 <g id="figure_1">
  <g id="patch_1">
   <path d="M 0 345.6 
L 460.8 345.6 
L 460.8 0 
L 0 0 
z
" style="fill:#ffffff;"/>
  </g>
  <g id="axes_1">
   <g id="patch_2">
    <path d="M 57.6 307.584 
L 414.72 307.584 
L 414.72 41.472 
L 57.6 41.472 
z
" style="fill:#ffffff;"/>
   </g>
   <g id="PolyCollection_1">
    <path clip-path="url(#p89d0ab58b0)" d="M 57.6 282.37086 
L 57.6 309.268069 
L 61.207273 304.857776 
L 64.814545 300.690157 
L 68.421818 296.472328 
L 72.029091 292.298395 
L 75.636364 288.352394 
L 79.243636 284.29419 
L 82.850909 280.260621 
L 86.458182 276.515452 
L 90.065455 272.844307 
L 93.672727 269.157307 
L 97.28 265.463017 
L 100.887273 261.846022 
L 104.494545 258.288667 
L 108.101818 254.868792 
L 111.709091 251.402874 
L 115.316364 248.072489 
L 118.923636 244.697464 
L 122.530909 241.455009 
L 126.138182 238.195439 
L 129.745455 234.892456 
L 133.352727 231.685646 
L 136.96 228.603316 
L 140.567273 225.657509 
L 144.174545 222.662658 
L 147.781818 219.631128 
L 151.389091 216.815273 
L 154.996364 214.00553 
L 158.603636 211.16129 
L 162.210909 208.262796 
L 165.818182 205.562954 
L 169.425455 202.891692 
L 173.032727 200.198731 
L 176.64 197.487213 
L 180.247273 194.847125 
L 183.854545 192.291268 
L 187.461818 189.807689 
L 191.069091 187.30388 
L 194.676364 184.868282 
L 198.283636 182.448701 
L 201.890909 180.067494 
L 205.498182 177.727277 
L 209.105455 175.426572 
L 212.712727 173.08566 
L 216.32 170.804685 
L 219.927273 168.564679 
L 223.534545 166.357553 
L 227.141818 164.172201 
L 230.749091 162.090956 
L 234.356364 159.973826 
L 237.963636 157.857255 
L 241.570909 155.764508 
L 245.178182 153.756271 
L 248.785455 151.806679 
L 252.392727 149.778636 
L 256 147.827152 
L 259.607273 145.883816 
L 263.214545 143.97143 
L 266.821818 142.089996 
L 270.429091 140.270217 
L 274.036364 138.437742 
L 277.643636 136.779822 
L 281.250909 135.006393 
L 284.858182 133.255445 
L 288.465455 131.651158 
L 292.072727 130.037908 
L 295.68 128.388085 
L 299.287273 126.775086 
L 302.894545 125.283103 
L 306.501818 123.901867 
L 310.109091 122.663005 
L 313.716364 121.374103 
L 317.323636 120.099878 
L 320.930909 118.740613 
L 324.538182 117.586022 
L 328.145455 116.497822 
L 331.752727 115.294518 
L 335.36 114.417655 
L 338.967273 113.53404 
L 342.574545 112.691112 
L 346.181818 111.963999 
L 349.789091 111.035743 
L 353.396364 110.178919 
L 357.003636 109.418921 
L 360.610909 108.665141 
L 364.218182 108.028955 
L 367.825455 107.608748 
L 371.432727 107.128114 
L 375.04 106.769902 
L 378.647273 106.393371 
L 382.254545 105.951453 
L 385.861818 105.781336 
L 389.469091 105.539546 
L 393.076364 105.555164 
L 396.683636 105.580553 
L 400.290909 105.553995 
L 403.898182 105.409385 
L 407.505455 105.544545 
L 411.112727 105.514911 
L 414.72 105.719556 
L 414.72 76.51499 
L 414.72 76.51499 
L 411.112727 77.507276 
L 407.505455 78.430598 
L 403.898182 79.589042 
L 400.290909 80.499624 
L 396.683636 81.451936 
L 393.076364 82.438301 
L 389.469091 83.569646 
L 385.861818 84.70959 
L 382.254545 85.65139 
L 378.647273 86.777629 
L 375.04 87.751735 
L 371.432727 88.861801 
L 367.825455 89.917818 
L 364.218182 90.98911 
L 360.610909 92.192948 
L 357.003636 93.401089 
L 353.396364 94.615844 
L 349.789091 95.634616 
L 346.181818 96.762022 
L 342.574545 97.965364 
L 338.967273 99.040779 
L 335.36 100.116392 
L 331.752727 101.509901 
L 328.145455 102.971196 
L 324.538182 104.230159 
L 320.930909 105.765914 
L 317.323636 107.041424 
L 313.716364 108.540736 
L 310.109091 109.945519 
L 306.501818 111.323406 
L 302.894545 112.744704 
L 299.287273 114.241838 
L 295.68 115.830455 
L 292.072727 117.428304 
L 288.465455 118.995293 
L 284.858182 120.554501 
L 281.250909 122.205336 
L 277.643636 123.881655 
L 274.036364 125.598486 
L 270.429091 127.350618 
L 266.821818 129.153976 
L 263.214545 131.007151 
L 259.607273 132.834039 
L 256 134.71436 
L 252.392727 136.613505 
L 248.785455 138.502688 
L 245.178182 140.478977 
L 241.570909 142.487176 
L 237.963636 144.469403 
L 234.356364 146.508592 
L 230.749091 148.628714 
L 227.141818 150.795508 
L 223.534545 153.059195 
L 219.927273 155.307729 
L 216.32 157.552982 
L 212.712727 159.74437 
L 209.105455 162.178381 
L 205.498182 164.482711 
L 201.890909 166.893349 
L 198.283636 169.307048 
L 194.676364 171.850734 
L 191.069091 174.361282 
L 187.461818 176.92426 
L 183.854545 179.564579 
L 180.247273 182.311063 
L 176.64 184.95176 
L 173.032727 187.611203 
L 169.425455 190.276641 
L 165.818182 192.97167 
L 162.210909 195.808238 
L 158.603636 198.614208 
L 154.996364 201.358774 
L 151.389091 204.215133 
L 147.781818 207.004478 
L 144.174545 209.974926 
L 140.567273 212.857132 
L 136.96 215.761235 
L 133.352727 218.652761 
L 129.745455 221.466165 
L 126.138182 224.588726 
L 122.530909 227.401577 
L 118.923636 230.24163 
L 115.316364 233.318403 
L 111.709091 236.224843 
L 108.101818 239.068537 
L 104.494545 242.07475 
L 100.887273 245.302617 
L 97.28 248.275181 
L 93.672727 251.228818 
L 90.065455 254.139209 
L 86.458182 257.298892 
L 82.850909 260.369727 
L 79.243636 263.503775 
L 75.636364 266.627161 
L 72.029091 269.776259 
L 68.421818 272.907648 
L 64.814545 276.049407 
L 61.207273 279.217639 
L 57.6 282.37086 
z
" style="fill:#808080;fill-opacity:0.15;"/>
   </g>
   <g id="PathCollection_1">
    <defs>
     <path d="M 0 3 
C 0.795609 3 1.55874 2.683901 2.12132 2.12132 
C 2.683901 1.55874 3 0.795609 3 0 
C 3 -0.795609 2.683901 -1.55874 2.12132 -2.12132 
C 1.55874 -2.683901 0.795609 -3 0 -3 
C -0.795609 -3 -1.55874 -2.683901 -2.12132 -2.12132 
C -2.683901 -1.55874 -3 -0.795609 -3 0 
C -3 0.795609 -2.683901 1.55874 -2.12132 2.12132 
C -1.55874 2.683901 -0.795609 3 0 3 
z
" id="C0_0_e48fa25ad9"/>
    </defs>
    <g clip-path="url(#p89d0ab58b0)">
     <use style="fill:#a87900;stroke:#a87900;" x="57.6" xlink:href="#C0_0_e48fa25ad9" y="307.584"/>
    </g>
    <g clip-path="url(#p89d0ab58b0)">
     <use style="fill:#a87900;stroke:#a87900;" x="60.93757" xlink:href="#C0_0_e48fa25ad9" y="306.183777"/>
    </g>
    <g clip-path="url(#p89d0ab58b0)">
     <use style="fill:#a87900;stroke:#a87900;" x="64.27514" xlink:href="#C0_0_e48fa25ad9" y="283.866161"/>
    </g>
    <g clip-path="url(#p89d0ab58b0)">
     <use style="fill:#a87900;stroke:#a87900;" x="67.61271" xlink:href="#C0_0_e48fa25ad9" y="259.682631"/>
    </g>
    <g clip-path="url(#p89d0ab58b0)">
     <use style="fill:#a87900;stroke:#a87900;" x="70.95028" xlink:href="#C0_0_e48fa25ad9" y="307.584"/>
    </g>
    <g clip-path="url(#p89d0ab58b0)">
     <use style="fill:#a87900;stroke:#a87900;" x="74.28785" xlink:href="#C0_0_e48fa25ad9" y="307.584"/>
    </g>
    <g clip-path="url(#p89d0ab58b0)">
     <use style="fill:#a87900;stroke:#a87900;" x="77.625421" xlink:href="#C0_0_e48fa25ad9" y="293.658601"/>
    </g>
    <g clip-path="url(#p89d0ab58b0)">
     <use style="fill:#a87900;stroke:#a87900;" x="80.962991" xlink:href="#C0_0_e48fa25ad9" y="270.511623"/>
    </g>
    <g clip-path="url(#p89d0ab58b0)">
     <use style="fill:#a87900;stroke:#a87900;" x="84.300561" xlink:href="#C0_0_e48fa25ad9" y="269.396058"/>
    </g>
    <g clip-path="url(#p89d0ab58b0)">
     <use style="fill:#a87900;stroke:#a87900;" x="87.638131" xlink:href="#C0_0_e48fa25ad9" y="299.531653"/>
    </g>
    <g clip-path="url(#p89d0ab58b0)">
     <use style="fill:#a87900;stroke:#a87900;" x="90.975701" xlink:href="#C0_0_e48fa25ad9" y="295.842543"/>
    </g>
    <g clip-path="url(#p89d0ab58b0)">
     <use style="fill:#a87900;stroke:#a87900;" x="94.313271" xlink:href="#C0_0_e48fa25ad9" y="279.214409"/>
    </g>
    <g clip-path="url(#p89d0ab58b0)">
     <use style="fill:#a87900;stroke:#a87900;" x="97.650841" xlink:href="#C0_0_e48fa25ad9" y="222.727707"/>
    </g>
    <g clip-path="url(#p89d0ab58b0)">
     <use style="fill:#a87900;stroke:#a87900;" x="100.988411" xlink:href="#C0_0_e48fa25ad9" y="222.642591"/>
    </g>
    <g clip-path="url(#p89d0ab58b0)">
     <use style="fill:#a87900;stroke:#a87900;" x="104.325981" xlink:href="#C0_0_e48fa25ad9" y="295.386823"/>
    </g>
    <g clip-path="url(#p89d0ab58b0)">
     <use style="fill:#a87900;stroke:#a87900;" x="107.663551" xlink:href="#C0_0_e48fa25ad9" y="240.293872"/>
    </g>
    <g clip-path="url(#p89d0ab58b0)">
     <use style="fill:#a87900;stroke:#a87900;" x="111.001121" xlink:href="#C0_0_e48fa25ad9" y="252.709742"/>
    </g>
    <g clip-path="url(#p89d0ab58b0)">
     <use style="fill:#a87900;stroke:#a87900;" x="114.338692" xlink:href="#C0_0_e48fa25ad9" y="192.157208"/>
    </g>
    <g clip-path="url(#p89d0ab58b0)">
     <use style="fill:#a87900;stroke:#a87900;" x="117.676262" xlink:href="#C0_0_e48fa25ad9" y="252.589488"/>
    </g>
    <g clip-path="url(#p89d0ab58b0)">
     <use style="fill:#a87900;stroke:#a87900;" x="121.013832" xlink:href="#C0_0_e48fa25ad9" y="234.805972"/>
    </g>
    <g clip-path="url(#p89d0ab58b0)">
     <use style="fill:#c5c9c7;stroke:#c5c9c7;" x="124.351402" xlink:href="#C0_0_e48fa25ad9" y="185.879154"/>
    </g>
    <g clip-path="url(#p89d0ab58b0)">
     <use style="fill:#c5c9c7;stroke:#c5c9c7;" x="127.688972" xlink:href="#C0_0_e48fa25ad9" y="254.972717"/>
    </g>
    <g clip-path="url(#p89d0ab58b0)">
     <use style="fill:#c5c9c7;stroke:#c5c9c7;" x="131.026542" xlink:href="#C0_0_e48fa25ad9" y="202.655361"/>
    </g>
    <g clip-path="url(#p89d0ab58b0)">
     <use style="fill:#c5c9c7;stroke:#c5c9c7;" x="134.364112" xlink:href="#C0_0_e48fa25ad9" y="250.185891"/>
    </g>
    <g clip-path="url(#p89d0ab58b0)">
     <use style="fill:#c5c9c7;stroke:#c5c9c7;" x="137.701682" xlink:href="#C0_0_e48fa25ad9" y="193.053626"/>
    </g>
    <g clip-path="url(#p89d0ab58b0)">
     <use style="fill:#c5c9c7;stroke:#c5c9c7;" x="141.039252" xlink:href="#C0_0_e48fa25ad9" y="207.788452"/>
    </g>
    <g clip-path="url(#p89d0ab58b0)">
     <use style="fill:#c5c9c7;stroke:#c5c9c7;" x="144.376822" xlink:href="#C0_0_e48fa25ad9" y="233.193124"/>
    </g>
    <g clip-path="url(#p89d0ab58b0)">
     <use style="fill:#c5c9c7;stroke:#c5c9c7;" x="147.714393" xlink:href="#C0_0_e48fa25ad9" y="191.994339"/>
    </g>
    <g clip-path="url(#p89d0ab58b0)">
     <use style="fill:#c5c9c7;stroke:#c5c9c7;" x="151.051963" xlink:href="#C0_0_e48fa25ad9" y="184.134914"/>
    </g>
    <g clip-path="url(#p89d0ab58b0)">
     <use style="fill:#c5c9c7;stroke:#c5c9c7;" x="154.389533" xlink:href="#C0_0_e48fa25ad9" y="199.857607"/>
    </g>
    <g clip-path="url(#p89d0ab58b0)">
     <use style="fill:#c5c9c7;stroke:#c5c9c7;" x="157.727103" xlink:href="#C0_0_e48fa25ad9" y="193.493248"/>
    </g>
    <g clip-path="url(#p89d0ab58b0)">
     <use style="fill:#c5c9c7;stroke:#c5c9c7;" x="161.064673" xlink:href="#C0_0_e48fa25ad9" y="210.923945"/>
    </g>
    <g clip-path="url(#p89d0ab58b0)">
     <use style="fill:#c5c9c7;stroke:#c5c9c7;" x="164.402243" xlink:href="#C0_0_e48fa25ad9" y="227.072214"/>
    </g>
    <g clip-path="url(#p89d0ab58b0)">
     <use style="fill:#c5c9c7;stroke:#c5c9c7;" x="167.739813" xlink:href="#C0_0_e48fa25ad9" y="176.981251"/>
    </g>
    <g clip-path="url(#p89d0ab58b0)">
     <use style="fill:#c5c9c7;stroke:#c5c9c7;" x="171.077383" xlink:href="#C0_0_e48fa25ad9" y="161.508312"/>
    </g>
    <g clip-path="url(#p89d0ab58b0)">
     <use style="fill:#c5c9c7;stroke:#c5c9c7;" x="174.414953" xlink:href="#C0_0_e48fa25ad9" y="192.873267"/>
    </g>
    <g clip-path="url(#p89d0ab58b0)">
     <use style="fill:#c5c9c7;stroke:#c5c9c7;" x="177.752523" xlink:href="#C0_0_e48fa25ad9" y="228.323319"/>
    </g>
    <g clip-path="url(#p89d0ab58b0)">
     <use style="fill:#c5c9c7;stroke:#c5c9c7;" x="181.090093" xlink:href="#C0_0_e48fa25ad9" y="225.991053"/>
    </g>
    <g clip-path="url(#p89d0ab58b0)">
     <use style="fill:#c5c9c7;stroke:#c5c9c7;" x="184.427664" xlink:href="#C0_0_e48fa25ad9" y="146.086982"/>
    </g>
    <g clip-path="url(#p89d0ab58b0)">
     <use style="fill:#c5c9c7;stroke:#c5c9c7;" x="187.765234" xlink:href="#C0_0_e48fa25ad9" y="165.502871"/>
    </g>
    <g clip-path="url(#p89d0ab58b0)">
     <use style="fill:#dbb40c;stroke:#dbb40c;" x="191.102804" xlink:href="#C0_0_e48fa25ad9" y="159.587602"/>
    </g>
    <g clip-path="url(#p89d0ab58b0)">
     <use style="fill:#dbb40c;stroke:#dbb40c;" x="194.440374" xlink:href="#C0_0_e48fa25ad9" y="177.94769"/>
    </g>
    <g clip-path="url(#p89d0ab58b0)">
     <use style="fill:#dbb40c;stroke:#dbb40c;" x="197.777944" xlink:href="#C0_0_e48fa25ad9" y="186.89101"/>
    </g>
    <g clip-path="url(#p89d0ab58b0)">
     <use style="fill:#dbb40c;stroke:#dbb40c;" x="201.115514" xlink:href="#C0_0_e48fa25ad9" y="161.967533"/>
    </g>
    <g clip-path="url(#p89d0ab58b0)">
     <use style="fill:#dbb40c;stroke:#dbb40c;" x="204.453084" xlink:href="#C0_0_e48fa25ad9" y="178.669187"/>
    </g>
    <g clip-path="url(#p89d0ab58b0)">
     <use style="fill:#dbb40c;stroke:#dbb40c;" x="207.790654" xlink:href="#C0_0_e48fa25ad9" y="185.968298"/>
    </g>
    <g clip-path="url(#p89d0ab58b0)">
     <use style="fill:#dbb40c;stroke:#dbb40c;" x="211.128224" xlink:href="#C0_0_e48fa25ad9" y="166.55399"/>
    </g>
    <g clip-path="url(#p89d0ab58b0)">
     <use style="fill:#dbb40c;stroke:#dbb40c;" x="214.465794" xlink:href="#C0_0_e48fa25ad9" y="168.8133"/>
    </g>
    <g clip-path="url(#p89d0ab58b0)">
     <use style="fill:#dbb40c;stroke:#dbb40c;" x="217.803364" xlink:href="#C0_0_e48fa25ad9" y="165.629508"/>
    </g>
    <g clip-path="url(#p89d0ab58b0)">
     <use style="fill:#dbb40c;stroke:#dbb40c;" x="221.140935" xlink:href="#C0_0_e48fa25ad9" y="164.307802"/>
    </g>
    <g clip-path="url(#p89d0ab58b0)">
     <use style="fill:#dbb40c;stroke:#dbb40c;" x="224.478505" xlink:href="#C0_0_e48fa25ad9" y="169.19561"/>
    </g>
    <g clip-path="url(#p89d0ab58b0)">
     <use style="fill:#dbb40c;stroke:#dbb40c;" x="227.816075" xlink:href="#C0_0_e48fa25ad9" y="131.189761"/>
    </g>
    <g clip-path="url(#p89d0ab58b0)">
     <use style="fill:#dbb40c;stroke:#dbb40c;" x="231.153645" xlink:href="#C0_0_e48fa25ad9" y="144.585798"/>
    </g>
    <g clip-path="url(#p89d0ab58b0)">
     <use style="fill:#dbb40c;stroke:#dbb40c;" x="234.491215" xlink:href="#C0_0_e48fa25ad9" y="110.771535"/>
    </g>
    <g clip-path="url(#p89d0ab58b0)">
     <use style="fill:#dbb40c;stroke:#dbb40c;" x="237.828785" xlink:href="#C0_0_e48fa25ad9" y="133.888585"/>
    </g>
    <g clip-path="url(#p89d0ab58b0)">
     <use style="fill:#dbb40c;stroke:#dbb40c;" x="241.166355" xlink:href="#C0_0_e48fa25ad9" y="136.585903"/>
    </g>
    <g clip-path="url(#p89d0ab58b0)">
     <use style="fill:#dbb40c;stroke:#dbb40c;" x="244.503925" xlink:href="#C0_0_e48fa25ad9" y="90.540449"/>
    </g>
    <g clip-path="url(#p89d0ab58b0)">
     <use style="fill:#dbb40c;stroke:#dbb40c;" x="247.841495" xlink:href="#C0_0_e48fa25ad9" y="181.9075"/>
    </g>
    <g clip-path="url(#p89d0ab58b0)">
     <use style="fill:#dbb40c;stroke:#dbb40c;" x="251.179065" xlink:href="#C0_0_e48fa25ad9" y="187.553665"/>
    </g>
    <g clip-path="url(#p89d0ab58b0)">
     <use style="fill:#dbb40c;stroke:#dbb40c;" x="254.516636" xlink:href="#C0_0_e48fa25ad9" y="143.706168"/>
    </g>
    <g clip-path="url(#p89d0ab58b0)">
     <use style="fill:#13eac9;stroke:#13eac9;" x="257.854206" xlink:href="#C0_0_e48fa25ad9" y="131.081219"/>
    </g>
    <g clip-path="url(#p89d0ab58b0)">
     <use style="fill:#13eac9;stroke:#13eac9;" x="261.191776" xlink:href="#C0_0_e48fa25ad9" y="134.949315"/>
    </g>
    <g clip-path="url(#p89d0ab58b0)">
     <use style="fill:#13eac9;stroke:#13eac9;" x="264.529346" xlink:href="#C0_0_e48fa25ad9" y="155.432515"/>
    </g>
    <g clip-path="url(#p89d0ab58b0)">
     <use style="fill:#13eac9;stroke:#13eac9;" x="267.866916" xlink:href="#C0_0_e48fa25ad9" y="140.801441"/>
    </g>
    <g clip-path="url(#p89d0ab58b0)">
     <use style="fill:#13eac9;stroke:#13eac9;" x="271.204486" xlink:href="#C0_0_e48fa25ad9" y="132.975319"/>
    </g>
    <g clip-path="url(#p89d0ab58b0)">
     <use style="fill:#13eac9;stroke:#13eac9;" x="274.542056" xlink:href="#C0_0_e48fa25ad9" y="137.503817"/>
    </g>
    <g clip-path="url(#p89d0ab58b0)">
     <use style="fill:#13eac9;stroke:#13eac9;" x="277.879626" xlink:href="#C0_0_e48fa25ad9" y="150.766718"/>
    </g>
    <g clip-path="url(#p89d0ab58b0)">
     <use style="fill:#13eac9;stroke:#13eac9;" x="281.217196" xlink:href="#C0_0_e48fa25ad9" y="109.244599"/>
    </g>
    <g clip-path="url(#p89d0ab58b0)">
     <use style="fill:#13eac9;stroke:#13eac9;" x="284.554766" xlink:href="#C0_0_e48fa25ad9" y="136.571991"/>
    </g>
    <g clip-path="url(#p89d0ab58b0)">
     <use style="fill:#13eac9;stroke:#13eac9;" x="287.892336" xlink:href="#C0_0_e48fa25ad9" y="137.503409"/>
    </g>
    <g clip-path="url(#p89d0ab58b0)">
     <use style="fill:#13eac9;stroke:#13eac9;" x="291.229907" xlink:href="#C0_0_e48fa25ad9" y="108.665577"/>
    </g>
    <g clip-path="url(#p89d0ab58b0)">
     <use style="fill:#13eac9;stroke:#13eac9;" x="294.567477" xlink:href="#C0_0_e48fa25ad9" y="145.661795"/>
    </g>
    <g clip-path="url(#p89d0ab58b0)">
     <use style="fill:#13eac9;stroke:#13eac9;" x="297.905047" xlink:href="#C0_0_e48fa25ad9" y="106.00996"/>
    </g>
    <g clip-path="url(#p89d0ab58b0)">
     <use style="fill:#13eac9;stroke:#13eac9;" x="301.242617" xlink:href="#C0_0_e48fa25ad9" y="125.015978"/>
    </g>
    <g clip-path="url(#p89d0ab58b0)">
     <use style="fill:#13eac9;stroke:#13eac9;" x="304.580187" xlink:href="#C0_0_e48fa25ad9" y="136.487211"/>
    </g>
    <g clip-path="url(#p89d0ab58b0)">
     <use style="fill:#13eac9;stroke:#13eac9;" x="307.917757" xlink:href="#C0_0_e48fa25ad9" y="141.742717"/>
    </g>
    <g clip-path="url(#p89d0ab58b0)">
     <use style="fill:#13eac9;stroke:#13eac9;" x="311.255327" xlink:href="#C0_0_e48fa25ad9" y="112.209773"/>
    </g>
    <g clip-path="url(#p89d0ab58b0)">
     <use style="fill:#13eac9;stroke:#13eac9;" x="314.592897" xlink:href="#C0_0_e48fa25ad9" y="107.712877"/>
    </g>
    <g clip-path="url(#p89d0ab58b0)">
     <use style="fill:#13eac9;stroke:#13eac9;" x="317.930467" xlink:href="#C0_0_e48fa25ad9" y="68.865535"/>
    </g>
    <g clip-path="url(#p89d0ab58b0)">
     <use style="fill:#13eac9;stroke:#13eac9;" x="321.268037" xlink:href="#C0_0_e48fa25ad9" y="79.472274"/>
    </g>
    <g clip-path="url(#p89d0ab58b0)">
     <use style="fill:#75bbfd;stroke:#75bbfd;" x="324.605607" xlink:href="#C0_0_e48fa25ad9" y="149.518699"/>
    </g>
    <g clip-path="url(#p89d0ab58b0)">
     <use style="fill:#75bbfd;stroke:#75bbfd;" x="327.943178" xlink:href="#C0_0_e48fa25ad9" y="158.818843"/>
    </g>
    <g clip-path="url(#p89d0ab58b0)">
     <use style="fill:#75bbfd;stroke:#75bbfd;" x="331.280748" xlink:href="#C0_0_e48fa25ad9" y="171.401066"/>
    </g>
    <g clip-path="url(#p89d0ab58b0)">
     <use style="fill:#75bbfd;stroke:#75bbfd;" x="334.618318" xlink:href="#C0_0_e48fa25ad9" y="158.0851"/>
    </g>
    <g clip-path="url(#p89d0ab58b0)">
     <use style="fill:#75bbfd;stroke:#75bbfd;" x="337.955888" xlink:href="#C0_0_e48fa25ad9" y="108.59275"/>
    </g>
    <g clip-path="url(#p89d0ab58b0)">
     <use style="fill:#75bbfd;stroke:#75bbfd;" x="341.293458" xlink:href="#C0_0_e48fa25ad9" y="103.57853"/>
    </g>
    <g clip-path="url(#p89d0ab58b0)">
     <use style="fill:#75bbfd;stroke:#75bbfd;" x="344.631028" xlink:href="#C0_0_e48fa25ad9" y="143.284221"/>
    </g>
    <g clip-path="url(#p89d0ab58b0)">
     <use style="fill:#75bbfd;stroke:#75bbfd;" x="347.968598" xlink:href="#C0_0_e48fa25ad9" y="89.326678"/>
    </g>
    <g clip-path="url(#p89d0ab58b0)">
     <use style="fill:#75bbfd;stroke:#75bbfd;" x="351.306168" xlink:href="#C0_0_e48fa25ad9" y="116.792674"/>
    </g>
    <g clip-path="url(#p89d0ab58b0)">
     <use style="fill:#75bbfd;stroke:#75bbfd;" x="354.643738" xlink:href="#C0_0_e48fa25ad9" y="94.16316"/>
    </g>
    <g clip-path="url(#p89d0ab58b0)">
     <use style="fill:#75bbfd;stroke:#75bbfd;" x="357.981308" xlink:href="#C0_0_e48fa25ad9" y="98.600876"/>
    </g>
    <g clip-path="url(#p89d0ab58b0)">
     <use style="fill:#75bbfd;stroke:#75bbfd;" x="361.318879" xlink:href="#C0_0_e48fa25ad9" y="83.954513"/>
    </g>
    <g clip-path="url(#p89d0ab58b0)">
     <use style="fill:#75bbfd;stroke:#75bbfd;" x="364.656449" xlink:href="#C0_0_e48fa25ad9" y="50.56791"/>
    </g>
    <g clip-path="url(#p89d0ab58b0)">
     <use style="fill:#75bbfd;stroke:#75bbfd;" x="367.994019" xlink:href="#C0_0_e48fa25ad9" y="72.334011"/>
    </g>
    <g clip-path="url(#p89d0ab58b0)">
     <use style="fill:#75bbfd;stroke:#75bbfd;" x="371.331589" xlink:href="#C0_0_e48fa25ad9" y="129.712807"/>
    </g>
    <g clip-path="url(#p89d0ab58b0)">
     <use style="fill:#75bbfd;stroke:#75bbfd;" x="374.669159" xlink:href="#C0_0_e48fa25ad9" y="83.915754"/>
    </g>
    <g clip-path="url(#p89d0ab58b0)">
     <use style="fill:#75bbfd;stroke:#75bbfd;" x="378.006729" xlink:href="#C0_0_e48fa25ad9" y="128.409"/>
    </g>
    <g clip-path="url(#p89d0ab58b0)">
     <use style="fill:#75bbfd;stroke:#75bbfd;" x="381.344299" xlink:href="#C0_0_e48fa25ad9" y="126.575177"/>
    </g>
    <g clip-path="url(#p89d0ab58b0)">
     <use style="fill:#75bbfd;stroke:#75bbfd;" x="384.681869" xlink:href="#C0_0_e48fa25ad9" y="108.35468"/>
    </g>
    <g clip-path="url(#p89d0ab58b0)">
     <use style="fill:#75bbfd;stroke:#75bbfd;" x="388.019439" xlink:href="#C0_0_e48fa25ad9" y="63.939654"/>
    </g>
    <g clip-path="url(#p89d0ab58b0)">
     <use style="fill:#acc2d9;stroke:#acc2d9;" x="391.357009" xlink:href="#C0_0_e48fa25ad9" y="106.093135"/>
    </g>
    <g clip-path="url(#p89d0ab58b0)">
     <use style="fill:#acc2d9;stroke:#acc2d9;" x="394.694579" xlink:href="#C0_0_e48fa25ad9" y="49.234554"/>
    </g>
    <g clip-path="url(#p89d0ab58b0)">
     <use style="fill:#acc2d9;stroke:#acc2d9;" x="398.03215" xlink:href="#C0_0_e48fa25ad9" y="83.088581"/>
    </g>
    <g clip-path="url(#p89d0ab58b0)">
     <use style="fill:#acc2d9;stroke:#acc2d9;" x="401.36972" xlink:href="#C0_0_e48fa25ad9" y="115.63331"/>
    </g>
    <g clip-path="url(#p89d0ab58b0)">
     <use style="fill:#faee66;stroke:#faee66;" x="404.70729" xlink:href="#C0_0_e48fa25ad9" y="47.631161"/>
    </g>
    <g clip-path="url(#p89d0ab58b0)">
     <use style="fill:#faee66;stroke:#faee66;" x="408.04486" xlink:href="#C0_0_e48fa25ad9" y="64.955037"/>
    </g>
    <g clip-path="url(#p89d0ab58b0)">
     <use style="fill:#faee66;stroke:#faee66;" x="411.38243" xlink:href="#C0_0_e48fa25ad9" y="94.496975"/>
    </g>
    <g clip-path="url(#p89d0ab58b0)">
     <use style="fill:#faee66;stroke:#faee66;" x="414.72" xlink:href="#C0_0_e48fa25ad9" y="74.924294"/>
    </g>
   </g>
   <g id="patch_3">
    <path clip-path="url(#p89d0ab58b0)" d="M 57.6 307.584 
L 57.6 41.472 
L 124.351402 41.472 
L 124.351402 307.584 
z
" style="fill:#a87900;opacity:0.2;stroke:#a87900;stroke-linejoin:miter;"/>
   </g>
   <g id="patch_4">
    <path clip-path="url(#p89d0ab58b0)" d="M 124.351402 307.584 
L 124.351402 41.472 
L 191.102804 41.472 
L 191.102804 307.584 
z
" style="fill:#c5c9c7;opacity:0.2;stroke:#c5c9c7;stroke-linejoin:miter;"/>
   </g>
   <g id="patch_5">
    <path clip-path="url(#p89d0ab58b0)" d="M 191.102804 307.584 
L 191.102804 41.472 
L 257.854206 41.472 
L 257.854206 307.584 
z
" style="fill:#dbb40c;opacity:0.2;stroke:#dbb40c;stroke-linejoin:miter;"/>
   </g>
   <g id="patch_6">
    <path clip-path="url(#p89d0ab58b0)" d="M 257.854206 307.584 
L 257.854206 41.472 
L 324.605607 41.472 
L 324.605607 307.584 
z
" style="fill:#13eac9;opacity:0.2;stroke:#13eac9;stroke-linejoin:miter;"/>
   </g>
   <g id="patch_7">
    <path clip-path="url(#p89d0ab58b0)" d="M 324.605607 307.584 
L 324.605607 41.472 
L 391.357009 41.472 
L 391.357009 307.584 
z
" style="fill:#75bbfd;opacity:0.2;stroke:#75bbfd;stroke-linejoin:miter;"/>
   </g>
   <g id="patch_8">
    <path clip-path="url(#p89d0ab58b0)" d="M 391.357009 307.584 
L 391.357009 41.472 
L 404.70729 41.472 
L 404.70729 307.584 
z
" style="fill:#acc2d9;opacity:0.2;stroke:#acc2d9;stroke-linejoin:miter;"/>
   </g>
   <g id="patch_9">
    <path clip-path="url(#p89d0ab58b0)" d="M 404.70729 307.584 
L 404.70729 41.472 
L 418.05757 41.472 
L 418.05757 307.584 
z
" style="fill:#faee66;opacity:0.2;stroke:#faee66;stroke-linejoin:miter;"/>
   </g>
   <g id="matplotlib.axis_1">
    <g id="xtick_1">
     <g id="line2d_1">
      <path clip-path="url(#p89d0ab58b0)" d="M 90.975701 307.584 
L 90.975701 41.472 
" style="fill:none;opacity:0.2;stroke:#b0b0b0;stroke-linecap:square;stroke-width:0.8;"/>
     </g>
     <g id="line2d_2">
      <defs>
       <path d="M 0 0 
L 0 3.5 
" id="mccbe3ba085" style="stroke:#000000;stroke-width:0.8;"/>
      </defs>
      <g>
       <use style="stroke:#000000;stroke-width:0.8;" x="90.975701" xlink:href="#mccbe3ba085" y="307.584"/>
      </g>
     </g>
     <g id="text_1">
      <!-- Bronze -->
      <defs>
       <path d="M 19.671875 34.8125 
L 19.671875 8.109375 
L 35.5 8.109375 
Q 43.453125 8.109375 47.28125 11.40625 
Q 51.125 14.703125 51.125 21.484375 
Q 51.125 28.328125 47.28125 31.5625 
Q 43.453125 34.8125 35.5 34.8125 
z
M 19.671875 64.796875 
L 19.671875 42.828125 
L 34.28125 42.828125 
Q 41.5 42.828125 45.03125 45.53125 
Q 48.578125 48.25 48.578125 53.8125 
Q 48.578125 59.328125 45.03125 62.0625 
Q 41.5 64.796875 34.28125 64.796875 
z
M 9.8125 72.90625 
L 35.015625 72.90625 
Q 46.296875 72.90625 52.390625 68.21875 
Q 58.5 63.53125 58.5 54.890625 
Q 58.5 48.1875 55.375 44.234375 
Q 52.25 40.28125 46.1875 39.3125 
Q 53.46875 37.75 57.5 32.78125 
Q 61.53125 27.828125 61.53125 20.40625 
Q 61.53125 10.640625 54.890625 5.3125 
Q 48.25 0 35.984375 0 
L 9.8125 0 
z
" id="DejaVuSans-42"/>
       <path d="M 41.109375 46.296875 
Q 39.59375 47.171875 37.8125 47.578125 
Q 36.03125 48 33.890625 48 
Q 26.265625 48 22.1875 43.046875 
Q 18.109375 38.09375 18.109375 28.8125 
L 18.109375 0 
L 9.078125 0 
L 9.078125 54.6875 
L 18.109375 54.6875 
L 18.109375 46.1875 
Q 20.953125 51.171875 25.484375 53.578125 
Q 30.03125 56 36.53125 56 
Q 37.453125 56 38.578125 55.875 
Q 39.703125 55.765625 41.0625 55.515625 
z
" id="DejaVuSans-72"/>
       <path d="M 30.609375 48.390625 
Q 23.390625 48.390625 19.1875 42.75 
Q 14.984375 37.109375 14.984375 27.296875 
Q 14.984375 17.484375 19.15625 11.84375 
Q 23.34375 6.203125 30.609375 6.203125 
Q 37.796875 6.203125 41.984375 11.859375 
Q 46.1875 17.53125 46.1875 27.296875 
Q 46.1875 37.015625 41.984375 42.703125 
Q 37.796875 48.390625 30.609375 48.390625 
z
M 30.609375 56 
Q 42.328125 56 49.015625 48.375 
Q 55.71875 40.765625 55.71875 27.296875 
Q 55.71875 13.875 49.015625 6.21875 
Q 42.328125 -1.421875 30.609375 -1.421875 
Q 18.84375 -1.421875 12.171875 6.21875 
Q 5.515625 13.875 5.515625 27.296875 
Q 5.515625 40.765625 12.171875 48.375 
Q 18.84375 56 30.609375 56 
z
" id="DejaVuSans-6f"/>
       <path d="M 54.890625 33.015625 
L 54.890625 0 
L 45.90625 0 
L 45.90625 32.71875 
Q 45.90625 40.484375 42.875 44.328125 
Q 39.84375 48.1875 33.796875 48.1875 
Q 26.515625 48.1875 22.3125 43.546875 
Q 18.109375 38.921875 18.109375 30.90625 
L 18.109375 0 
L 9.078125 0 
L 9.078125 54.6875 
L 18.109375 54.6875 
L 18.109375 46.1875 
Q 21.34375 51.125 25.703125 53.5625 
Q 30.078125 56 35.796875 56 
Q 45.21875 56 50.046875 50.171875 
Q 54.890625 44.34375 54.890625 33.015625 
z
" id="DejaVuSans-6e"/>
       <path d="M 5.515625 54.6875 
L 48.1875 54.6875 
L 48.1875 46.484375 
L 14.40625 7.171875 
L 48.1875 7.171875 
L 48.1875 0 
L 4.296875 0 
L 4.296875 8.203125 
L 38.09375 47.515625 
L 5.515625 47.515625 
z
" id="DejaVuSans-7a"/>
       <path d="M 56.203125 29.59375 
L 56.203125 25.203125 
L 14.890625 25.203125 
Q 15.484375 15.921875 20.484375 11.0625 
Q 25.484375 6.203125 34.421875 6.203125 
Q 39.59375 6.203125 44.453125 7.46875 
Q 49.3125 8.734375 54.109375 11.28125 
L 54.109375 2.78125 
Q 49.265625 0.734375 44.1875 -0.34375 
Q 39.109375 -1.421875 33.890625 -1.421875 
Q 20.796875 -1.421875 13.15625 6.1875 
Q 5.515625 13.8125 5.515625 26.8125 
Q 5.515625 40.234375 12.765625 48.109375 
Q 20.015625 56 32.328125 56 
Q 43.359375 56 49.78125 48.890625 
Q 56.203125 41.796875 56.203125 29.59375 
z
M 47.21875 32.234375 
Q 47.125 39.59375 43.09375 43.984375 
Q 39.0625 48.390625 32.421875 48.390625 
Q 24.90625 48.390625 20.390625 44.140625 
Q 15.875 39.890625 15.1875 32.171875 
z
" id="DejaVuSans-65"/>
      </defs>
      <g style="fill:#a87900;" transform="translate(73.56242 322.182437)scale(0.1 -0.1)">
       <use xlink:href="#DejaVuSans-42"/>
       <use x="68.603516" xlink:href="#DejaVuSans-72"/>
       <use x="109.685547" xlink:href="#DejaVuSans-6f"/>
       <use x="170.867188" xlink:href="#DejaVuSans-6e"/>
       <use x="234.246094" xlink:href="#DejaVuSans-7a"/>
       <use x="286.736328" xlink:href="#DejaVuSans-65"/>
      </g>
     </g>
    </g>
    <g id="xtick_2">
     <g id="line2d_3">
      <path clip-path="url(#p89d0ab58b0)" d="M 157.727103 307.584 
L 157.727103 41.472 
" style="fill:none;opacity:0.2;stroke:#b0b0b0;stroke-linecap:square;stroke-width:0.8;"/>
     </g>
     <g id="line2d_4">
      <g>
       <use style="stroke:#000000;stroke-width:0.8;" x="157.727103" xlink:href="#mccbe3ba085" y="307.584"/>
      </g>
     </g>
     <g id="text_2">
      <!-- Silver -->
      <defs>
       <path d="M 53.515625 70.515625 
L 53.515625 60.890625 
Q 47.90625 63.578125 42.921875 64.890625 
Q 37.9375 66.21875 33.296875 66.21875 
Q 25.25 66.21875 20.875 63.09375 
Q 16.5 59.96875 16.5 54.203125 
Q 16.5 49.359375 19.40625 46.890625 
Q 22.3125 44.4375 30.421875 42.921875 
L 36.375 41.703125 
Q 47.40625 39.59375 52.65625 34.296875 
Q 57.90625 29 57.90625 20.125 
Q 57.90625 9.515625 50.796875 4.046875 
Q 43.703125 -1.421875 29.984375 -1.421875 
Q 24.8125 -1.421875 18.96875 -0.25 
Q 13.140625 0.921875 6.890625 3.21875 
L 6.890625 13.375 
Q 12.890625 10.015625 18.65625 8.296875 
Q 24.421875 6.59375 29.984375 6.59375 
Q 38.421875 6.59375 43.015625 9.90625 
Q 47.609375 13.234375 47.609375 19.390625 
Q 47.609375 24.75 44.3125 27.78125 
Q 41.015625 30.8125 33.5 32.328125 
L 27.484375 33.5 
Q 16.453125 35.6875 11.515625 40.375 
Q 6.59375 45.0625 6.59375 53.421875 
Q 6.59375 63.09375 13.40625 68.65625 
Q 20.21875 74.21875 32.171875 74.21875 
Q 37.3125 74.21875 42.625 73.28125 
Q 47.953125 72.359375 53.515625 70.515625 
z
" id="DejaVuSans-53"/>
       <path d="M 9.421875 54.6875 
L 18.40625 54.6875 
L 18.40625 0 
L 9.421875 0 
z
M 9.421875 75.984375 
L 18.40625 75.984375 
L 18.40625 64.59375 
L 9.421875 64.59375 
z
" id="DejaVuSans-69"/>
       <path d="M 9.421875 75.984375 
L 18.40625 75.984375 
L 18.40625 0 
L 9.421875 0 
z
" id="DejaVuSans-6c"/>
       <path d="M 2.984375 54.6875 
L 12.5 54.6875 
L 29.59375 8.796875 
L 46.6875 54.6875 
L 56.203125 54.6875 
L 35.6875 0 
L 23.484375 0 
z
" id="DejaVuSans-76"/>
      </defs>
      <g style="fill:#c5c9c7;" transform="translate(143.683353 322.182437)scale(0.1 -0.1)">
       <use xlink:href="#DejaVuSans-53"/>
       <use x="63.476562" xlink:href="#DejaVuSans-69"/>
       <use x="91.259766" xlink:href="#DejaVuSans-6c"/>
       <use x="119.042969" xlink:href="#DejaVuSans-76"/>
       <use x="178.222656" xlink:href="#DejaVuSans-65"/>
       <use x="239.746094" xlink:href="#DejaVuSans-72"/>
      </g>
     </g>
    </g>
    <g id="xtick_3">
     <g id="line2d_5">
      <path clip-path="url(#p89d0ab58b0)" d="M 224.478505 307.584 
L 224.478505 41.472 
" style="fill:none;opacity:0.2;stroke:#b0b0b0;stroke-linecap:square;stroke-width:0.8;"/>
     </g>
     <g id="line2d_6">
      <g>
       <use style="stroke:#000000;stroke-width:0.8;" x="224.478505" xlink:href="#mccbe3ba085" y="307.584"/>
      </g>
     </g>
     <g id="text_3">
      <!-- Gold -->
      <defs>
       <path d="M 59.515625 10.40625 
L 59.515625 29.984375 
L 43.40625 29.984375 
L 43.40625 38.09375 
L 69.28125 38.09375 
L 69.28125 6.78125 
Q 63.578125 2.734375 56.6875 0.65625 
Q 49.8125 -1.421875 42 -1.421875 
Q 24.90625 -1.421875 15.25 8.5625 
Q 5.609375 18.5625 5.609375 36.375 
Q 5.609375 54.25 15.25 64.234375 
Q 24.90625 74.21875 42 74.21875 
Q 49.125 74.21875 55.546875 72.453125 
Q 61.96875 70.703125 67.390625 67.28125 
L 67.390625 56.78125 
Q 61.921875 61.421875 55.765625 63.765625 
Q 49.609375 66.109375 42.828125 66.109375 
Q 29.4375 66.109375 22.71875 58.640625 
Q 16.015625 51.171875 16.015625 36.375 
Q 16.015625 21.625 22.71875 14.15625 
Q 29.4375 6.6875 42.828125 6.6875 
Q 48.046875 6.6875 52.140625 7.59375 
Q 56.25 8.5 59.515625 10.40625 
z
" id="DejaVuSans-47"/>
       <path d="M 45.40625 46.390625 
L 45.40625 75.984375 
L 54.390625 75.984375 
L 54.390625 0 
L 45.40625 0 
L 45.40625 8.203125 
Q 42.578125 3.328125 38.25 0.953125 
Q 33.9375 -1.421875 27.875 -1.421875 
Q 17.96875 -1.421875 11.734375 6.484375 
Q 5.515625 14.40625 5.515625 27.296875 
Q 5.515625 40.1875 11.734375 48.09375 
Q 17.96875 56 27.875 56 
Q 33.9375 56 38.25 53.625 
Q 42.578125 51.265625 45.40625 46.390625 
z
M 14.796875 27.296875 
Q 14.796875 17.390625 18.875 11.75 
Q 22.953125 6.109375 30.078125 6.109375 
Q 37.203125 6.109375 41.296875 11.75 
Q 45.40625 17.390625 45.40625 27.296875 
Q 45.40625 37.203125 41.296875 42.84375 
Q 37.203125 48.484375 30.078125 48.484375 
Q 22.953125 48.484375 18.875 42.84375 
Q 14.796875 37.203125 14.796875 27.296875 
z
" id="DejaVuSans-64"/>
      </defs>
      <g style="fill:#dbb40c;" transform="translate(212.98163 322.182437)scale(0.1 -0.1)">
       <use xlink:href="#DejaVuSans-47"/>
       <use x="77.490234" xlink:href="#DejaVuSans-6f"/>
       <use x="138.671875" xlink:href="#DejaVuSans-6c"/>
       <use x="166.455078" xlink:href="#DejaVuSans-64"/>
      </g>
     </g>
    </g>
    <g id="xtick_4">
     <g id="line2d_7">
      <path clip-path="url(#p89d0ab58b0)" d="M 291.229907 307.584 
L 291.229907 41.472 
" style="fill:none;opacity:0.2;stroke:#b0b0b0;stroke-linecap:square;stroke-width:0.8;"/>
     </g>
     <g id="line2d_8">
      <g>
       <use style="stroke:#000000;stroke-width:0.8;" x="291.229907" xlink:href="#mccbe3ba085" y="307.584"/>
      </g>
     </g>
     <g id="text_4">
      <!-- Platinum -->
      <defs>
       <path d="M 19.671875 64.796875 
L 19.671875 37.40625 
L 32.078125 37.40625 
Q 38.96875 37.40625 42.71875 40.96875 
Q 46.484375 44.53125 46.484375 51.125 
Q 46.484375 57.671875 42.71875 61.234375 
Q 38.96875 64.796875 32.078125 64.796875 
z
M 9.8125 72.90625 
L 32.078125 72.90625 
Q 44.34375 72.90625 50.609375 67.359375 
Q 56.890625 61.8125 56.890625 51.125 
Q 56.890625 40.328125 50.609375 34.8125 
Q 44.34375 29.296875 32.078125 29.296875 
L 19.671875 29.296875 
L 19.671875 0 
L 9.8125 0 
z
" id="DejaVuSans-50"/>
       <path d="M 34.28125 27.484375 
Q 23.390625 27.484375 19.1875 25 
Q 14.984375 22.515625 14.984375 16.5 
Q 14.984375 11.71875 18.140625 8.90625 
Q 21.296875 6.109375 26.703125 6.109375 
Q 34.1875 6.109375 38.703125 11.40625 
Q 43.21875 16.703125 43.21875 25.484375 
L 43.21875 27.484375 
z
M 52.203125 31.203125 
L 52.203125 0 
L 43.21875 0 
L 43.21875 8.296875 
Q 40.140625 3.328125 35.546875 0.953125 
Q 30.953125 -1.421875 24.3125 -1.421875 
Q 15.921875 -1.421875 10.953125 3.296875 
Q 6 8.015625 6 15.921875 
Q 6 25.140625 12.171875 29.828125 
Q 18.359375 34.515625 30.609375 34.515625 
L 43.21875 34.515625 
L 43.21875 35.40625 
Q 43.21875 41.609375 39.140625 45 
Q 35.0625 48.390625 27.6875 48.390625 
Q 23 48.390625 18.546875 47.265625 
Q 14.109375 46.140625 10.015625 43.890625 
L 10.015625 52.203125 
Q 14.9375 54.109375 19.578125 55.046875 
Q 24.21875 56 28.609375 56 
Q 40.484375 56 46.34375 49.84375 
Q 52.203125 43.703125 52.203125 31.203125 
z
" id="DejaVuSans-61"/>
       <path d="M 18.3125 70.21875 
L 18.3125 54.6875 
L 36.8125 54.6875 
L 36.8125 47.703125 
L 18.3125 47.703125 
L 18.3125 18.015625 
Q 18.3125 11.328125 20.140625 9.421875 
Q 21.96875 7.515625 27.59375 7.515625 
L 36.8125 7.515625 
L 36.8125 0 
L 27.59375 0 
Q 17.1875 0 13.234375 3.875 
Q 9.28125 7.765625 9.28125 18.015625 
L 9.28125 47.703125 
L 2.6875 47.703125 
L 2.6875 54.6875 
L 9.28125 54.6875 
L 9.28125 70.21875 
z
" id="DejaVuSans-74"/>
       <path d="M 8.5 21.578125 
L 8.5 54.6875 
L 17.484375 54.6875 
L 17.484375 21.921875 
Q 17.484375 14.15625 20.5 10.265625 
Q 23.53125 6.390625 29.59375 6.390625 
Q 36.859375 6.390625 41.078125 11.03125 
Q 45.3125 15.671875 45.3125 23.6875 
L 45.3125 54.6875 
L 54.296875 54.6875 
L 54.296875 0 
L 45.3125 0 
L 45.3125 8.40625 
Q 42.046875 3.421875 37.71875 1 
Q 33.40625 -1.421875 27.6875 -1.421875 
Q 18.265625 -1.421875 13.375 4.4375 
Q 8.5 10.296875 8.5 21.578125 
z
M 31.109375 56 
z
" id="DejaVuSans-75"/>
       <path d="M 52 44.1875 
Q 55.375 50.25 60.0625 53.125 
Q 64.75 56 71.09375 56 
Q 79.640625 56 84.28125 50.015625 
Q 88.921875 44.046875 88.921875 33.015625 
L 88.921875 0 
L 79.890625 0 
L 79.890625 32.71875 
Q 79.890625 40.578125 77.09375 44.375 
Q 74.3125 48.1875 68.609375 48.1875 
Q 61.625 48.1875 57.5625 43.546875 
Q 53.515625 38.921875 53.515625 30.90625 
L 53.515625 0 
L 44.484375 0 
L 44.484375 32.71875 
Q 44.484375 40.625 41.703125 44.40625 
Q 38.921875 48.1875 33.109375 48.1875 
Q 26.21875 48.1875 22.15625 43.53125 
Q 18.109375 38.875 18.109375 30.90625 
L 18.109375 0 
L 9.078125 0 
L 9.078125 54.6875 
L 18.109375 54.6875 
L 18.109375 46.1875 
Q 21.1875 51.21875 25.484375 53.609375 
Q 29.78125 56 35.6875 56 
Q 41.65625 56 45.828125 52.96875 
Q 50 49.953125 52 44.1875 
z
" id="DejaVuSans-6d"/>
      </defs>
      <g style="fill:#13eac9;" transform="translate(269.204907 322.182437)scale(0.1 -0.1)">
       <use xlink:href="#DejaVuSans-50"/>
       <use x="60.302734" xlink:href="#DejaVuSans-6c"/>
       <use x="88.085938" xlink:href="#DejaVuSans-61"/>
       <use x="149.365234" xlink:href="#DejaVuSans-74"/>
       <use x="188.574219" xlink:href="#DejaVuSans-69"/>
       <use x="216.357422" xlink:href="#DejaVuSans-6e"/>
       <use x="279.736328" xlink:href="#DejaVuSans-75"/>
       <use x="343.115234" xlink:href="#DejaVuSans-6d"/>
      </g>
     </g>
    </g>
    <g id="xtick_5">
     <g id="line2d_9">
      <path clip-path="url(#p89d0ab58b0)" d="M 357.981308 307.584 
L 357.981308 41.472 
" style="fill:none;opacity:0.2;stroke:#b0b0b0;stroke-linecap:square;stroke-width:0.8;"/>
     </g>
     <g id="line2d_10">
      <g>
       <use style="stroke:#000000;stroke-width:0.8;" x="357.981308" xlink:href="#mccbe3ba085" y="307.584"/>
      </g>
     </g>
     <g id="text_5">
      <!-- Diamond -->
      <defs>
       <path d="M 19.671875 64.796875 
L 19.671875 8.109375 
L 31.59375 8.109375 
Q 46.6875 8.109375 53.6875 14.9375 
Q 60.6875 21.78125 60.6875 36.53125 
Q 60.6875 51.171875 53.6875 57.984375 
Q 46.6875 64.796875 31.59375 64.796875 
z
M 9.8125 72.90625 
L 30.078125 72.90625 
Q 51.265625 72.90625 61.171875 64.09375 
Q 71.09375 55.28125 71.09375 36.53125 
Q 71.09375 17.671875 61.125 8.828125 
Q 51.171875 0 30.078125 0 
L 9.8125 0 
z
" id="DejaVuSans-44"/>
      </defs>
      <g style="fill:#75bbfd;" transform="translate(335.405527 322.182437)scale(0.1 -0.1)">
       <use xlink:href="#DejaVuSans-44"/>
       <use x="77.001953" xlink:href="#DejaVuSans-69"/>
       <use x="104.785156" xlink:href="#DejaVuSans-61"/>
       <use x="166.064453" xlink:href="#DejaVuSans-6d"/>
       <use x="263.476562" xlink:href="#DejaVuSans-6f"/>
       <use x="324.658203" xlink:href="#DejaVuSans-6e"/>
       <use x="388.037109" xlink:href="#DejaVuSans-64"/>
      </g>
     </g>
    </g>
    <g id="xtick_6">
     <g id="line2d_11">
      <path clip-path="url(#p89d0ab58b0)" d="M 398.03215 307.584 
L 398.03215 41.472 
" style="fill:none;opacity:0.2;stroke:#b0b0b0;stroke-linecap:square;stroke-width:0.8;"/>
     </g>
     <g id="line2d_12">
      <g>
       <use style="stroke:#000000;stroke-width:0.8;" x="398.03215" xlink:href="#mccbe3ba085" y="307.584"/>
      </g>
     </g>
     <g id="text_6">
      <!-- Master -->
      <defs>
       <path d="M 9.8125 72.90625 
L 24.515625 72.90625 
L 43.109375 23.296875 
L 61.8125 72.90625 
L 76.515625 72.90625 
L 76.515625 0 
L 66.890625 0 
L 66.890625 64.015625 
L 48.09375 14.015625 
L 38.1875 14.015625 
L 19.390625 64.015625 
L 19.390625 0 
L 9.8125 0 
z
" id="DejaVuSans-4d"/>
       <path d="M 44.28125 53.078125 
L 44.28125 44.578125 
Q 40.484375 46.53125 36.375 47.5 
Q 32.28125 48.484375 27.875 48.484375 
Q 21.1875 48.484375 17.84375 46.4375 
Q 14.5 44.390625 14.5 40.28125 
Q 14.5 37.15625 16.890625 35.375 
Q 19.28125 33.59375 26.515625 31.984375 
L 29.59375 31.296875 
Q 39.15625 29.25 43.1875 25.515625 
Q 47.21875 21.78125 47.21875 15.09375 
Q 47.21875 7.46875 41.1875 3.015625 
Q 35.15625 -1.421875 24.609375 -1.421875 
Q 20.21875 -1.421875 15.453125 -0.5625 
Q 10.6875 0.296875 5.421875 2 
L 5.421875 11.28125 
Q 10.40625 8.6875 15.234375 7.390625 
Q 20.0625 6.109375 24.8125 6.109375 
Q 31.15625 6.109375 34.5625 8.28125 
Q 37.984375 10.453125 37.984375 14.40625 
Q 37.984375 18.0625 35.515625 20.015625 
Q 33.0625 21.96875 24.703125 23.78125 
L 21.578125 24.515625 
Q 13.234375 26.265625 9.515625 29.90625 
Q 5.8125 33.546875 5.8125 39.890625 
Q 5.8125 47.609375 11.28125 51.796875 
Q 16.75 56 26.8125 56 
Q 31.78125 56 36.171875 55.265625 
Q 40.578125 54.546875 44.28125 53.078125 
z
" id="DejaVuSans-73"/>
      </defs>
      <g style="fill:#acc2d9;" transform="translate(384.624453 338.23944)rotate(-30)scale(0.1 -0.1)">
       <use xlink:href="#DejaVuSans-4d"/>
       <use x="86.279297" xlink:href="#DejaVuSans-61"/>
       <use x="147.558594" xlink:href="#DejaVuSans-73"/>
       <use x="199.658203" xlink:href="#DejaVuSans-74"/>
       <use x="238.867188" xlink:href="#DejaVuSans-65"/>
       <use x="300.390625" xlink:href="#DejaVuSans-72"/>
      </g>
     </g>
    </g>
    <g id="xtick_7">
     <g id="line2d_13">
      <path clip-path="url(#p89d0ab58b0)" d="M 411.38243 307.584 
L 411.38243 41.472 
" style="fill:none;opacity:0.2;stroke:#b0b0b0;stroke-linecap:square;stroke-width:0.8;"/>
     </g>
     <g id="line2d_14">
      <g>
       <use style="stroke:#000000;stroke-width:0.8;" x="411.38243" xlink:href="#mccbe3ba085" y="307.584"/>
      </g>
     </g>
     <g id="text_7">
      <!-- Challanger -->
      <defs>
       <path d="M 64.40625 67.28125 
L 64.40625 56.890625 
Q 59.421875 61.53125 53.78125 63.8125 
Q 48.140625 66.109375 41.796875 66.109375 
Q 29.296875 66.109375 22.65625 58.46875 
Q 16.015625 50.828125 16.015625 36.375 
Q 16.015625 21.96875 22.65625 14.328125 
Q 29.296875 6.6875 41.796875 6.6875 
Q 48.140625 6.6875 53.78125 8.984375 
Q 59.421875 11.28125 64.40625 15.921875 
L 64.40625 5.609375 
Q 59.234375 2.09375 53.4375 0.328125 
Q 47.65625 -1.421875 41.21875 -1.421875 
Q 24.65625 -1.421875 15.125 8.703125 
Q 5.609375 18.84375 5.609375 36.375 
Q 5.609375 53.953125 15.125 64.078125 
Q 24.65625 74.21875 41.21875 74.21875 
Q 47.75 74.21875 53.53125 72.484375 
Q 59.328125 70.75 64.40625 67.28125 
z
" id="DejaVuSans-43"/>
       <path d="M 54.890625 33.015625 
L 54.890625 0 
L 45.90625 0 
L 45.90625 32.71875 
Q 45.90625 40.484375 42.875 44.328125 
Q 39.84375 48.1875 33.796875 48.1875 
Q 26.515625 48.1875 22.3125 43.546875 
Q 18.109375 38.921875 18.109375 30.90625 
L 18.109375 0 
L 9.078125 0 
L 9.078125 75.984375 
L 18.109375 75.984375 
L 18.109375 46.1875 
Q 21.34375 51.125 25.703125 53.5625 
Q 30.078125 56 35.796875 56 
Q 45.21875 56 50.046875 50.171875 
Q 54.890625 44.34375 54.890625 33.015625 
z
" id="DejaVuSans-68"/>
       <path d="M 45.40625 27.984375 
Q 45.40625 37.75 41.375 43.109375 
Q 37.359375 48.484375 30.078125 48.484375 
Q 22.859375 48.484375 18.828125 43.109375 
Q 14.796875 37.75 14.796875 27.984375 
Q 14.796875 18.265625 18.828125 12.890625 
Q 22.859375 7.515625 30.078125 7.515625 
Q 37.359375 7.515625 41.375 12.890625 
Q 45.40625 18.265625 45.40625 27.984375 
z
M 54.390625 6.78125 
Q 54.390625 -7.171875 48.1875 -13.984375 
Q 42 -20.796875 29.203125 -20.796875 
Q 24.46875 -20.796875 20.265625 -20.09375 
Q 16.0625 -19.390625 12.109375 -17.921875 
L 12.109375 -9.1875 
Q 16.0625 -11.328125 19.921875 -12.34375 
Q 23.78125 -13.375 27.78125 -13.375 
Q 36.625 -13.375 41.015625 -8.765625 
Q 45.40625 -4.15625 45.40625 5.171875 
L 45.40625 9.625 
Q 42.625 4.78125 38.28125 2.390625 
Q 33.9375 0 27.875 0 
Q 17.828125 0 11.671875 7.65625 
Q 5.515625 15.328125 5.515625 27.984375 
Q 5.515625 40.671875 11.671875 48.328125 
Q 17.828125 56 27.875 56 
Q 33.9375 56 38.28125 53.609375 
Q 42.625 51.21875 45.40625 46.390625 
L 45.40625 54.6875 
L 54.390625 54.6875 
z
" id="DejaVuSans-67"/>
      </defs>
      <g style="fill:#faee66;" transform="translate(389.343573 348.205846)rotate(-30)scale(0.1 -0.1)">
       <use xlink:href="#DejaVuSans-43"/>
       <use x="69.824219" xlink:href="#DejaVuSans-68"/>
       <use x="133.203125" xlink:href="#DejaVuSans-61"/>
       <use x="194.482422" xlink:href="#DejaVuSans-6c"/>
       <use x="222.265625" xlink:href="#DejaVuSans-6c"/>
       <use x="250.048828" xlink:href="#DejaVuSans-61"/>
       <use x="311.328125" xlink:href="#DejaVuSans-6e"/>
       <use x="374.707031" xlink:href="#DejaVuSans-67"/>
       <use x="438.183594" xlink:href="#DejaVuSans-65"/>
       <use x="499.707031" xlink:href="#DejaVuSans-72"/>
      </g>
     </g>
    </g>
    <g id="xtick_8">
     <g id="line2d_15">
      <defs>
       <path d="M 0 0 
L 0 -2 
" id="ma75a0132cd" style="stroke:#000000;stroke-width:0.6;"/>
      </defs>
      <g>
       <use style="stroke:#000000;stroke-width:0.6;" x="64.27514" xlink:href="#ma75a0132cd" y="307.584"/>
      </g>
     </g>
     <g id="text_8">
      <!-- V -->
      <defs>
       <path d="M 28.609375 0 
L 0.78125 72.90625 
L 11.078125 72.90625 
L 34.1875 11.53125 
L 57.328125 72.90625 
L 67.578125 72.90625 
L 39.796875 0 
z
" id="DejaVuSans-56"/>
      </defs>
      <g transform="translate(60.854828 303.182437)scale(0.1 -0.1)">
       <use xlink:href="#DejaVuSans-56"/>
      </g>
     </g>
    </g>
    <g id="xtick_9">
     <g id="line2d_16">
      <g>
       <use style="stroke:#000000;stroke-width:0.6;" x="77.625421" xlink:href="#ma75a0132cd" y="307.584"/>
      </g>
     </g>
     <g id="text_9">
      <!-- IV -->
      <defs>
       <path d="M 9.8125 72.90625 
L 19.671875 72.90625 
L 19.671875 0 
L 9.8125 0 
z
" id="DejaVuSans-49"/>
      </defs>
      <g transform="translate(72.730108 303.182437)scale(0.1 -0.1)">
       <use xlink:href="#DejaVuSans-49"/>
       <use x="29.492188" xlink:href="#DejaVuSans-56"/>
      </g>
     </g>
    </g>
    <g id="xtick_10">
     <g id="line2d_17">
      <g>
       <use style="stroke:#000000;stroke-width:0.6;" x="90.975701" xlink:href="#ma75a0132cd" y="307.584"/>
      </g>
     </g>
     <g id="text_10">
      <!-- III -->
      <g transform="translate(86.550701 303.182437)scale(0.1 -0.1)">
       <use xlink:href="#DejaVuSans-49"/>
       <use x="29.492188" xlink:href="#DejaVuSans-49"/>
       <use x="58.984375" xlink:href="#DejaVuSans-49"/>
      </g>
     </g>
    </g>
    <g id="xtick_11">
     <g id="line2d_18">
      <g>
       <use style="stroke:#000000;stroke-width:0.6;" x="104.325981" xlink:href="#ma75a0132cd" y="307.584"/>
      </g>
     </g>
     <g id="text_11">
      <!-- II -->
      <g transform="translate(101.375981 303.182437)scale(0.1 -0.1)">
       <use xlink:href="#DejaVuSans-49"/>
       <use x="29.492188" xlink:href="#DejaVuSans-49"/>
      </g>
     </g>
    </g>
    <g id="xtick_12">
     <g id="line2d_19">
      <g>
       <use style="stroke:#000000;stroke-width:0.6;" x="117.676262" xlink:href="#ma75a0132cd" y="307.584"/>
      </g>
     </g>
     <g id="text_12">
      <!-- I -->
      <g transform="translate(116.201262 303.182437)scale(0.1 -0.1)">
       <use xlink:href="#DejaVuSans-49"/>
      </g>
     </g>
    </g>
    <g id="xtick_13">
     <g id="line2d_20">
      <g>
       <use style="stroke:#000000;stroke-width:0.6;" x="131.026542" xlink:href="#ma75a0132cd" y="307.584"/>
      </g>
     </g>
     <g id="text_13">
      <!-- V -->
      <g transform="translate(127.60623 303.182437)scale(0.1 -0.1)">
       <use xlink:href="#DejaVuSans-56"/>
      </g>
     </g>
    </g>
    <g id="xtick_14">
     <g id="line2d_21">
      <g>
       <use style="stroke:#000000;stroke-width:0.6;" x="144.376822" xlink:href="#ma75a0132cd" y="307.584"/>
      </g>
     </g>
     <g id="text_14">
      <!-- IV -->
      <g transform="translate(139.48151 303.182437)scale(0.1 -0.1)">
       <use xlink:href="#DejaVuSans-49"/>
       <use x="29.492188" xlink:href="#DejaVuSans-56"/>
      </g>
     </g>
    </g>
    <g id="xtick_15">
     <g id="line2d_22">
      <g>
       <use style="stroke:#000000;stroke-width:0.6;" x="157.727103" xlink:href="#ma75a0132cd" y="307.584"/>
      </g>
     </g>
     <g id="text_15">
      <!-- III -->
      <g transform="translate(153.302103 303.182437)scale(0.1 -0.1)">
       <use xlink:href="#DejaVuSans-49"/>
       <use x="29.492188" xlink:href="#DejaVuSans-49"/>
       <use x="58.984375" xlink:href="#DejaVuSans-49"/>
      </g>
     </g>
    </g>
    <g id="xtick_16">
     <g id="line2d_23">
      <g>
       <use style="stroke:#000000;stroke-width:0.6;" x="171.077383" xlink:href="#ma75a0132cd" y="307.584"/>
      </g>
     </g>
     <g id="text_16">
      <!-- II -->
      <g transform="translate(168.127383 303.182437)scale(0.1 -0.1)">
       <use xlink:href="#DejaVuSans-49"/>
       <use x="29.492188" xlink:href="#DejaVuSans-49"/>
      </g>
     </g>
    </g>
    <g id="xtick_17">
     <g id="line2d_24">
      <g>
       <use style="stroke:#000000;stroke-width:0.6;" x="184.427664" xlink:href="#ma75a0132cd" y="307.584"/>
      </g>
     </g>
     <g id="text_17">
      <!-- I -->
      <g transform="translate(182.952664 303.182437)scale(0.1 -0.1)">
       <use xlink:href="#DejaVuSans-49"/>
      </g>
     </g>
    </g>
    <g id="xtick_18">
     <g id="line2d_25">
      <g>
       <use style="stroke:#000000;stroke-width:0.6;" x="197.777944" xlink:href="#ma75a0132cd" y="307.584"/>
      </g>
     </g>
     <g id="text_18">
      <!-- V -->
      <g transform="translate(194.357631 303.182437)scale(0.1 -0.1)">
       <use xlink:href="#DejaVuSans-56"/>
      </g>
     </g>
    </g>
    <g id="xtick_19">
     <g id="line2d_26">
      <g>
       <use style="stroke:#000000;stroke-width:0.6;" x="211.128224" xlink:href="#ma75a0132cd" y="307.584"/>
      </g>
     </g>
     <g id="text_19">
      <!-- IV -->
      <g transform="translate(206.232912 303.182437)scale(0.1 -0.1)">
       <use xlink:href="#DejaVuSans-49"/>
       <use x="29.492188" xlink:href="#DejaVuSans-56"/>
      </g>
     </g>
    </g>
    <g id="xtick_20">
     <g id="line2d_27">
      <g>
       <use style="stroke:#000000;stroke-width:0.6;" x="224.478505" xlink:href="#ma75a0132cd" y="307.584"/>
      </g>
     </g>
     <g id="text_20">
      <!-- III -->
      <g transform="translate(220.053505 303.182437)scale(0.1 -0.1)">
       <use xlink:href="#DejaVuSans-49"/>
       <use x="29.492188" xlink:href="#DejaVuSans-49"/>
       <use x="58.984375" xlink:href="#DejaVuSans-49"/>
      </g>
     </g>
    </g>
    <g id="xtick_21">
     <g id="line2d_28">
      <g>
       <use style="stroke:#000000;stroke-width:0.6;" x="237.828785" xlink:href="#ma75a0132cd" y="307.584"/>
      </g>
     </g>
     <g id="text_21">
      <!-- II -->
      <g transform="translate(234.878785 303.182437)scale(0.1 -0.1)">
       <use xlink:href="#DejaVuSans-49"/>
       <use x="29.492188" xlink:href="#DejaVuSans-49"/>
      </g>
     </g>
    </g>
    <g id="xtick_22">
     <g id="line2d_29">
      <g>
       <use style="stroke:#000000;stroke-width:0.6;" x="251.179065" xlink:href="#ma75a0132cd" y="307.584"/>
      </g>
     </g>
     <g id="text_22">
      <!-- I -->
      <g transform="translate(249.704065 303.182437)scale(0.1 -0.1)">
       <use xlink:href="#DejaVuSans-49"/>
      </g>
     </g>
    </g>
    <g id="xtick_23">
     <g id="line2d_30">
      <g>
       <use style="stroke:#000000;stroke-width:0.6;" x="264.529346" xlink:href="#ma75a0132cd" y="307.584"/>
      </g>
     </g>
     <g id="text_23">
      <!-- V -->
      <g transform="translate(261.109033 303.182437)scale(0.1 -0.1)">
       <use xlink:href="#DejaVuSans-56"/>
      </g>
     </g>
    </g>
    <g id="xtick_24">
     <g id="line2d_31">
      <g>
       <use style="stroke:#000000;stroke-width:0.6;" x="277.879626" xlink:href="#ma75a0132cd" y="307.584"/>
      </g>
     </g>
     <g id="text_24">
      <!-- IV -->
      <g transform="translate(272.984314 303.182437)scale(0.1 -0.1)">
       <use xlink:href="#DejaVuSans-49"/>
       <use x="29.492188" xlink:href="#DejaVuSans-56"/>
      </g>
     </g>
    </g>
    <g id="xtick_25">
     <g id="line2d_32">
      <g>
       <use style="stroke:#000000;stroke-width:0.6;" x="291.229907" xlink:href="#ma75a0132cd" y="307.584"/>
      </g>
     </g>
     <g id="text_25">
      <!-- III -->
      <g transform="translate(286.804907 303.182437)scale(0.1 -0.1)">
       <use xlink:href="#DejaVuSans-49"/>
       <use x="29.492188" xlink:href="#DejaVuSans-49"/>
       <use x="58.984375" xlink:href="#DejaVuSans-49"/>
      </g>
     </g>
    </g>
    <g id="xtick_26">
     <g id="line2d_33">
      <g>
       <use style="stroke:#000000;stroke-width:0.6;" x="304.580187" xlink:href="#ma75a0132cd" y="307.584"/>
      </g>
     </g>
     <g id="text_26">
      <!-- II -->
      <g transform="translate(301.630187 303.182437)scale(0.1 -0.1)">
       <use xlink:href="#DejaVuSans-49"/>
       <use x="29.492188" xlink:href="#DejaVuSans-49"/>
      </g>
     </g>
    </g>
    <g id="xtick_27">
     <g id="line2d_34">
      <g>
       <use style="stroke:#000000;stroke-width:0.6;" x="317.930467" xlink:href="#ma75a0132cd" y="307.584"/>
      </g>
     </g>
     <g id="text_27">
      <!-- I -->
      <g transform="translate(316.455467 303.182437)scale(0.1 -0.1)">
       <use xlink:href="#DejaVuSans-49"/>
      </g>
     </g>
    </g>
    <g id="xtick_28">
     <g id="line2d_35">
      <g>
       <use style="stroke:#000000;stroke-width:0.6;" x="331.280748" xlink:href="#ma75a0132cd" y="307.584"/>
      </g>
     </g>
     <g id="text_28">
      <!-- V -->
      <g transform="translate(327.860435 303.182437)scale(0.1 -0.1)">
       <use xlink:href="#DejaVuSans-56"/>
      </g>
     </g>
    </g>
    <g id="xtick_29">
     <g id="line2d_36">
      <g>
       <use style="stroke:#000000;stroke-width:0.6;" x="344.631028" xlink:href="#ma75a0132cd" y="307.584"/>
      </g>
     </g>
     <g id="text_29">
      <!-- IV -->
      <g transform="translate(339.735716 303.182437)scale(0.1 -0.1)">
       <use xlink:href="#DejaVuSans-49"/>
       <use x="29.492188" xlink:href="#DejaVuSans-56"/>
      </g>
     </g>
    </g>
    <g id="xtick_30">
     <g id="line2d_37">
      <g>
       <use style="stroke:#000000;stroke-width:0.6;" x="357.981308" xlink:href="#ma75a0132cd" y="307.584"/>
      </g>
     </g>
     <g id="text_30">
      <!-- III -->
      <g transform="translate(353.556308 303.182437)scale(0.1 -0.1)">
       <use xlink:href="#DejaVuSans-49"/>
       <use x="29.492188" xlink:href="#DejaVuSans-49"/>
       <use x="58.984375" xlink:href="#DejaVuSans-49"/>
      </g>
     </g>
    </g>
    <g id="xtick_31">
     <g id="line2d_38">
      <g>
       <use style="stroke:#000000;stroke-width:0.6;" x="371.331589" xlink:href="#ma75a0132cd" y="307.584"/>
      </g>
     </g>
     <g id="text_31">
      <!-- II -->
      <g transform="translate(368.381589 303.182437)scale(0.1 -0.1)">
       <use xlink:href="#DejaVuSans-49"/>
       <use x="29.492188" xlink:href="#DejaVuSans-49"/>
      </g>
     </g>
    </g>
    <g id="xtick_32">
     <g id="line2d_39">
      <g>
       <use style="stroke:#000000;stroke-width:0.6;" x="384.681869" xlink:href="#ma75a0132cd" y="307.584"/>
      </g>
     </g>
     <g id="text_32">
      <!-- I -->
      <g transform="translate(383.206869 303.182437)scale(0.1 -0.1)">
       <use xlink:href="#DejaVuSans-49"/>
      </g>
     </g>
    </g>
    <g id="xtick_33">
     <g id="line2d_40">
      <g>
       <use style="stroke:#000000;stroke-width:0.6;" x="398.03215" xlink:href="#ma75a0132cd" y="307.584"/>
      </g>
     </g>
     <g id="text_33">
      <!-- I -->
      <g transform="translate(396.55715 303.182437)scale(0.1 -0.1)">
       <use xlink:href="#DejaVuSans-49"/>
      </g>
     </g>
    </g>
    <g id="xtick_34">
     <g id="line2d_41">
      <g>
       <use style="stroke:#000000;stroke-width:0.6;" x="411.38243" xlink:href="#ma75a0132cd" y="307.584"/>
      </g>
     </g>
     <g id="text_34">
      <!-- I -->
      <g transform="translate(409.90743 303.182437)scale(0.1 -0.1)">
       <use xlink:href="#DejaVuSans-49"/>
      </g>
     </g>
    </g>
    <g id="text_35">
     <!-- LP -->
     <defs>
      <path d="M 9.8125 72.90625 
L 19.671875 72.90625 
L 19.671875 8.296875 
L 55.171875 8.296875 
L 55.171875 0 
L 9.8125 0 
z
" id="DejaVuSans-4c"/>
     </defs>
     <g transform="translate(230.359219 361.605346)scale(0.1 -0.1)">
      <use xlink:href="#DejaVuSans-4c"/>
      <use x="55.712891" xlink:href="#DejaVuSans-50"/>
     </g>
    </g>
   </g>
   <g id="matplotlib.axis_2">
    <g id="ytick_1">
     <g id="line2d_42">
      <path clip-path="url(#p89d0ab58b0)" d="M 57.6 307.584 
L 414.72 307.584 
" style="fill:none;opacity:0.2;stroke:#b0b0b0;stroke-linecap:square;stroke-width:0.8;"/>
     </g>
     <g id="line2d_43">
      <defs>
       <path d="M 0 0 
L -3.5 0 
" id="m68e36a7c98" style="stroke:#000000;stroke-width:0.8;"/>
      </defs>
      <g>
       <use style="stroke:#000000;stroke-width:0.8;" x="57.6" xlink:href="#m68e36a7c98" y="307.584"/>
      </g>
     </g>
     <g id="text_36">
      <!-- 0% -->
      <defs>
       <path d="M 31.78125 66.40625 
Q 24.171875 66.40625 20.328125 58.90625 
Q 16.5 51.421875 16.5 36.375 
Q 16.5 21.390625 20.328125 13.890625 
Q 24.171875 6.390625 31.78125 6.390625 
Q 39.453125 6.390625 43.28125 13.890625 
Q 47.125 21.390625 47.125 36.375 
Q 47.125 51.421875 43.28125 58.90625 
Q 39.453125 66.40625 31.78125 66.40625 
z
M 31.78125 74.21875 
Q 44.046875 74.21875 50.515625 64.515625 
Q 56.984375 54.828125 56.984375 36.375 
Q 56.984375 17.96875 50.515625 8.265625 
Q 44.046875 -1.421875 31.78125 -1.421875 
Q 19.53125 -1.421875 13.0625 8.265625 
Q 6.59375 17.96875 6.59375 36.375 
Q 6.59375 54.828125 13.0625 64.515625 
Q 19.53125 74.21875 31.78125 74.21875 
z
" id="DejaVuSans-30"/>
       <path d="M 72.703125 32.078125 
Q 68.453125 32.078125 66.03125 28.46875 
Q 63.625 24.859375 63.625 18.40625 
Q 63.625 12.0625 66.03125 8.421875 
Q 68.453125 4.78125 72.703125 4.78125 
Q 76.859375 4.78125 79.265625 8.421875 
Q 81.6875 12.0625 81.6875 18.40625 
Q 81.6875 24.8125 79.265625 28.4375 
Q 76.859375 32.078125 72.703125 32.078125 
z
M 72.703125 38.28125 
Q 80.421875 38.28125 84.953125 32.90625 
Q 89.5 27.546875 89.5 18.40625 
Q 89.5 9.28125 84.9375 3.921875 
Q 80.375 -1.421875 72.703125 -1.421875 
Q 64.890625 -1.421875 60.34375 3.921875 
Q 55.8125 9.28125 55.8125 18.40625 
Q 55.8125 27.59375 60.375 32.9375 
Q 64.9375 38.28125 72.703125 38.28125 
z
M 22.3125 68.015625 
Q 18.109375 68.015625 15.6875 64.375 
Q 13.28125 60.75 13.28125 54.390625 
Q 13.28125 47.953125 15.671875 44.328125 
Q 18.0625 40.71875 22.3125 40.71875 
Q 26.5625 40.71875 28.96875 44.328125 
Q 31.390625 47.953125 31.390625 54.390625 
Q 31.390625 60.6875 28.953125 64.34375 
Q 26.515625 68.015625 22.3125 68.015625 
z
M 66.40625 74.21875 
L 74.21875 74.21875 
L 28.609375 -1.421875 
L 20.796875 -1.421875 
z
M 22.3125 74.21875 
Q 30.03125 74.21875 34.609375 68.875 
Q 39.203125 63.53125 39.203125 54.390625 
Q 39.203125 45.171875 34.640625 39.84375 
Q 30.078125 34.515625 22.3125 34.515625 
Q 14.546875 34.515625 10.03125 39.859375 
Q 5.515625 45.21875 5.515625 54.390625 
Q 5.515625 63.484375 10.046875 68.84375 
Q 14.59375 74.21875 22.3125 74.21875 
z
" id="DejaVuSans-25"/>
      </defs>
      <g transform="translate(34.735937 311.383219)scale(0.1 -0.1)">
       <use xlink:href="#DejaVuSans-30"/>
       <use x="63.623047" xlink:href="#DejaVuSans-25"/>
      </g>
     </g>
    </g>
    <g id="ytick_2">
     <g id="line2d_44">
      <path clip-path="url(#p89d0ab58b0)" d="M 57.6 254.3616 
L 414.72 254.3616 
" style="fill:none;opacity:0.2;stroke:#b0b0b0;stroke-linecap:square;stroke-width:0.8;"/>
     </g>
     <g id="line2d_45">
      <g>
       <use style="stroke:#000000;stroke-width:0.8;" x="57.6" xlink:href="#m68e36a7c98" y="254.3616"/>
      </g>
     </g>
     <g id="text_37">
      <!-- 20% -->
      <defs>
       <path d="M 19.1875 8.296875 
L 53.609375 8.296875 
L 53.609375 0 
L 7.328125 0 
L 7.328125 8.296875 
Q 12.9375 14.109375 22.625 23.890625 
Q 32.328125 33.6875 34.8125 36.53125 
Q 39.546875 41.84375 41.421875 45.53125 
Q 43.3125 49.21875 43.3125 52.78125 
Q 43.3125 58.59375 39.234375 62.25 
Q 35.15625 65.921875 28.609375 65.921875 
Q 23.96875 65.921875 18.8125 64.3125 
Q 13.671875 62.703125 7.8125 59.421875 
L 7.8125 69.390625 
Q 13.765625 71.78125 18.9375 73 
Q 24.125 74.21875 28.421875 74.21875 
Q 39.75 74.21875 46.484375 68.546875 
Q 53.21875 62.890625 53.21875 53.421875 
Q 53.21875 48.921875 51.53125 44.890625 
Q 49.859375 40.875 45.40625 35.40625 
Q 44.1875 33.984375 37.640625 27.21875 
Q 31.109375 20.453125 19.1875 8.296875 
z
" id="DejaVuSans-32"/>
      </defs>
      <g transform="translate(28.373438 258.160819)scale(0.1 -0.1)">
       <use xlink:href="#DejaVuSans-32"/>
       <use x="63.623047" xlink:href="#DejaVuSans-30"/>
       <use x="127.246094" xlink:href="#DejaVuSans-25"/>
      </g>
     </g>
    </g>
    <g id="ytick_3">
     <g id="line2d_46">
      <path clip-path="url(#p89d0ab58b0)" d="M 57.6 201.1392 
L 414.72 201.1392 
" style="fill:none;opacity:0.2;stroke:#b0b0b0;stroke-linecap:square;stroke-width:0.8;"/>
     </g>
     <g id="line2d_47">
      <g>
       <use style="stroke:#000000;stroke-width:0.8;" x="57.6" xlink:href="#m68e36a7c98" y="201.1392"/>
      </g>
     </g>
     <g id="text_38">
      <!-- 40% -->
      <defs>
       <path d="M 37.796875 64.3125 
L 12.890625 25.390625 
L 37.796875 25.390625 
z
M 35.203125 72.90625 
L 47.609375 72.90625 
L 47.609375 25.390625 
L 58.015625 25.390625 
L 58.015625 17.1875 
L 47.609375 17.1875 
L 47.609375 0 
L 37.796875 0 
L 37.796875 17.1875 
L 4.890625 17.1875 
L 4.890625 26.703125 
z
" id="DejaVuSans-34"/>
      </defs>
      <g transform="translate(28.373438 204.938419)scale(0.1 -0.1)">
       <use xlink:href="#DejaVuSans-34"/>
       <use x="63.623047" xlink:href="#DejaVuSans-30"/>
       <use x="127.246094" xlink:href="#DejaVuSans-25"/>
      </g>
     </g>
    </g>
    <g id="ytick_4">
     <g id="line2d_48">
      <path clip-path="url(#p89d0ab58b0)" d="M 57.6 147.9168 
L 414.72 147.9168 
" style="fill:none;opacity:0.2;stroke:#b0b0b0;stroke-linecap:square;stroke-width:0.8;"/>
     </g>
     <g id="line2d_49">
      <g>
       <use style="stroke:#000000;stroke-width:0.8;" x="57.6" xlink:href="#m68e36a7c98" y="147.9168"/>
      </g>
     </g>
     <g id="text_39">
      <!-- 60% -->
      <defs>
       <path d="M 33.015625 40.375 
Q 26.375 40.375 22.484375 35.828125 
Q 18.609375 31.296875 18.609375 23.390625 
Q 18.609375 15.53125 22.484375 10.953125 
Q 26.375 6.390625 33.015625 6.390625 
Q 39.65625 6.390625 43.53125 10.953125 
Q 47.40625 15.53125 47.40625 23.390625 
Q 47.40625 31.296875 43.53125 35.828125 
Q 39.65625 40.375 33.015625 40.375 
z
M 52.59375 71.296875 
L 52.59375 62.3125 
Q 48.875 64.0625 45.09375 64.984375 
Q 41.3125 65.921875 37.59375 65.921875 
Q 27.828125 65.921875 22.671875 59.328125 
Q 17.53125 52.734375 16.796875 39.40625 
Q 19.671875 43.65625 24.015625 45.921875 
Q 28.375 48.1875 33.59375 48.1875 
Q 44.578125 48.1875 50.953125 41.515625 
Q 57.328125 34.859375 57.328125 23.390625 
Q 57.328125 12.15625 50.6875 5.359375 
Q 44.046875 -1.421875 33.015625 -1.421875 
Q 20.359375 -1.421875 13.671875 8.265625 
Q 6.984375 17.96875 6.984375 36.375 
Q 6.984375 53.65625 15.1875 63.9375 
Q 23.390625 74.21875 37.203125 74.21875 
Q 40.921875 74.21875 44.703125 73.484375 
Q 48.484375 72.75 52.59375 71.296875 
z
" id="DejaVuSans-36"/>
      </defs>
      <g transform="translate(28.373438 151.716019)scale(0.1 -0.1)">
       <use xlink:href="#DejaVuSans-36"/>
       <use x="63.623047" xlink:href="#DejaVuSans-30"/>
       <use x="127.246094" xlink:href="#DejaVuSans-25"/>
      </g>
     </g>
    </g>
    <g id="ytick_5">
     <g id="line2d_50">
      <path clip-path="url(#p89d0ab58b0)" d="M 57.6 94.6944 
L 414.72 94.6944 
" style="fill:none;opacity:0.2;stroke:#b0b0b0;stroke-linecap:square;stroke-width:0.8;"/>
     </g>
     <g id="line2d_51">
      <g>
       <use style="stroke:#000000;stroke-width:0.8;" x="57.6" xlink:href="#m68e36a7c98" y="94.6944"/>
      </g>
     </g>
     <g id="text_40">
      <!-- 80% -->
      <defs>
       <path d="M 31.78125 34.625 
Q 24.75 34.625 20.71875 30.859375 
Q 16.703125 27.09375 16.703125 20.515625 
Q 16.703125 13.921875 20.71875 10.15625 
Q 24.75 6.390625 31.78125 6.390625 
Q 38.8125 6.390625 42.859375 10.171875 
Q 46.921875 13.96875 46.921875 20.515625 
Q 46.921875 27.09375 42.890625 30.859375 
Q 38.875 34.625 31.78125 34.625 
z
M 21.921875 38.8125 
Q 15.578125 40.375 12.03125 44.71875 
Q 8.5 49.078125 8.5 55.328125 
Q 8.5 64.0625 14.71875 69.140625 
Q 20.953125 74.21875 31.78125 74.21875 
Q 42.671875 74.21875 48.875 69.140625 
Q 55.078125 64.0625 55.078125 55.328125 
Q 55.078125 49.078125 51.53125 44.71875 
Q 48 40.375 41.703125 38.8125 
Q 48.828125 37.15625 52.796875 32.3125 
Q 56.78125 27.484375 56.78125 20.515625 
Q 56.78125 9.90625 50.3125 4.234375 
Q 43.84375 -1.421875 31.78125 -1.421875 
Q 19.734375 -1.421875 13.25 4.234375 
Q 6.78125 9.90625 6.78125 20.515625 
Q 6.78125 27.484375 10.78125 32.3125 
Q 14.796875 37.15625 21.921875 38.8125 
z
M 18.3125 54.390625 
Q 18.3125 48.734375 21.84375 45.5625 
Q 25.390625 42.390625 31.78125 42.390625 
Q 38.140625 42.390625 41.71875 45.5625 
Q 45.3125 48.734375 45.3125 54.390625 
Q 45.3125 60.0625 41.71875 63.234375 
Q 38.140625 66.40625 31.78125 66.40625 
Q 25.390625 66.40625 21.84375 63.234375 
Q 18.3125 60.0625 18.3125 54.390625 
z
" id="DejaVuSans-38"/>
      </defs>
      <g transform="translate(28.373438 98.493619)scale(0.1 -0.1)">
       <use xlink:href="#DejaVuSans-38"/>
       <use x="63.623047" xlink:href="#DejaVuSans-30"/>
       <use x="127.246094" xlink:href="#DejaVuSans-25"/>
      </g>
     </g>
    </g>
    <g id="ytick_6">
     <g id="line2d_52">
      <path clip-path="url(#p89d0ab58b0)" d="M 57.6 41.472 
L 414.72 41.472 
" style="fill:none;opacity:0.2;stroke:#b0b0b0;stroke-linecap:square;stroke-width:0.8;"/>
     </g>
     <g id="line2d_53">
      <g>
       <use style="stroke:#000000;stroke-width:0.8;" x="57.6" xlink:href="#m68e36a7c98" y="41.472"/>
      </g>
     </g>
     <g id="text_41">
      <!-- 100% -->
      <defs>
       <path d="M 12.40625 8.296875 
L 28.515625 8.296875 
L 28.515625 63.921875 
L 10.984375 60.40625 
L 10.984375 69.390625 
L 28.421875 72.90625 
L 38.28125 72.90625 
L 38.28125 8.296875 
L 54.390625 8.296875 
L 54.390625 0 
L 12.40625 0 
z
" id="DejaVuSans-31"/>
      </defs>
      <g transform="translate(22.010938 45.271219)scale(0.1 -0.1)">
       <use xlink:href="#DejaVuSans-31"/>
       <use x="63.623047" xlink:href="#DejaVuSans-30"/>
       <use x="127.246094" xlink:href="#DejaVuSans-30"/>
       <use x="190.869141" xlink:href="#DejaVuSans-25"/>
      </g>
     </g>
    </g>
    <g id="text_42">
     <!-- Alfabetismo -->
     <defs>
      <path d="M 34.1875 63.1875 
L 20.796875 26.90625 
L 47.609375 26.90625 
z
M 28.609375 72.90625 
L 39.796875 72.90625 
L 67.578125 0 
L 57.328125 0 
L 50.6875 18.703125 
L 17.828125 18.703125 
L 11.1875 0 
L 0.78125 0 
z
" id="DejaVuSans-41"/>
      <path d="M 37.109375 75.984375 
L 37.109375 68.5 
L 28.515625 68.5 
Q 23.6875 68.5 21.796875 66.546875 
Q 19.921875 64.59375 19.921875 59.515625 
L 19.921875 54.6875 
L 34.71875 54.6875 
L 34.71875 47.703125 
L 19.921875 47.703125 
L 19.921875 0 
L 10.890625 0 
L 10.890625 47.703125 
L 2.296875 47.703125 
L 2.296875 54.6875 
L 10.890625 54.6875 
L 10.890625 58.5 
Q 10.890625 67.625 15.140625 71.796875 
Q 19.390625 75.984375 28.609375 75.984375 
z
" id="DejaVuSans-66"/>
      <path d="M 48.6875 27.296875 
Q 48.6875 37.203125 44.609375 42.84375 
Q 40.53125 48.484375 33.40625 48.484375 
Q 26.265625 48.484375 22.1875 42.84375 
Q 18.109375 37.203125 18.109375 27.296875 
Q 18.109375 17.390625 22.1875 11.75 
Q 26.265625 6.109375 33.40625 6.109375 
Q 40.53125 6.109375 44.609375 11.75 
Q 48.6875 17.390625 48.6875 27.296875 
z
M 18.109375 46.390625 
Q 20.953125 51.265625 25.265625 53.625 
Q 29.59375 56 35.59375 56 
Q 45.5625 56 51.78125 48.09375 
Q 58.015625 40.1875 58.015625 27.296875 
Q 58.015625 14.40625 51.78125 6.484375 
Q 45.5625 -1.421875 35.59375 -1.421875 
Q 29.59375 -1.421875 25.265625 0.953125 
Q 20.953125 3.328125 18.109375 8.203125 
L 18.109375 0 
L 9.078125 0 
L 9.078125 75.984375 
L 18.109375 75.984375 
z
" id="DejaVuSans-62"/>
     </defs>
     <g transform="translate(15.93125 204.295969)rotate(-90)scale(0.1 -0.1)">
      <use xlink:href="#DejaVuSans-41"/>
      <use x="68.408203" xlink:href="#DejaVuSans-6c"/>
      <use x="96.191406" xlink:href="#DejaVuSans-66"/>
      <use x="131.396484" xlink:href="#DejaVuSans-61"/>
      <use x="192.675781" xlink:href="#DejaVuSans-62"/>
      <use x="256.152344" xlink:href="#DejaVuSans-65"/>
      <use x="317.675781" xlink:href="#DejaVuSans-74"/>
      <use x="356.884766" xlink:href="#DejaVuSans-69"/>
      <use x="384.667969" xlink:href="#DejaVuSans-73"/>
      <use x="436.767578" xlink:href="#DejaVuSans-6d"/>
      <use x="534.179688" xlink:href="#DejaVuSans-6f"/>
     </g>
    </g>
   </g>
   <g id="line2d_54">
    <path clip-path="url(#p89d0ab58b0)" d="M 57.6 297.290378 
L 61.207273 293.53703 
L 64.814545 289.817509 
L 68.421818 286.131817 
L 72.029091 282.479954 
L 75.636364 278.861918 
L 79.243636 275.277711 
L 82.850909 271.727333 
L 86.458182 268.210782 
L 90.065455 264.72806 
L 93.672727 261.279166 
L 97.28 257.8641 
L 100.887273 254.482863 
L 104.494545 251.135454 
L 108.101818 247.821873 
L 111.709091 244.54212 
L 115.316364 241.296196 
L 118.923636 238.0841 
L 122.530909 234.905833 
L 126.138182 231.761393 
L 129.745455 228.650782 
L 133.352727 225.573999 
L 136.96 222.531045 
L 140.567273 219.521919 
L 144.174545 216.546621 
L 147.781818 213.605151 
L 151.389091 210.69751 
L 154.996364 207.823697 
L 158.603636 204.983712 
L 162.210909 202.177555 
L 165.818182 199.405227 
L 169.425455 196.666727 
L 173.032727 193.962055 
L 176.64 191.291212 
L 180.247273 188.654197 
L 183.854545 186.05101 
L 187.461818 183.481652 
L 191.069091 180.946121 
L 194.676364 178.444419 
L 198.283636 175.976546 
L 201.890909 173.5425 
L 205.498182 171.142283 
L 209.105455 168.775894 
L 212.712727 166.443334 
L 216.32 164.144602 
L 219.927273 161.879698 
L 223.534545 159.648622 
L 227.141818 157.451375 
L 230.749091 155.287956 
L 234.356364 153.158365 
L 237.963636 151.062602 
L 241.570909 149.000668 
L 245.178182 146.972562 
L 248.785455 144.978284 
L 252.392727 143.017835 
L 256 141.091214 
L 259.607273 139.198421 
L 263.214545 137.339456 
L 266.821818 135.51432 
L 270.429091 133.723012 
L 274.036364 131.965532 
L 277.643636 130.241881 
L 281.250909 128.552058 
L 284.858182 126.896063 
L 288.465455 125.273897 
L 292.072727 123.685558 
L 295.68 122.131048 
L 299.287273 120.610367 
L 302.894545 119.123513 
L 306.501818 117.670488 
L 310.109091 116.251291 
L 313.716364 114.865923 
L 317.323636 113.514382 
L 320.930909 112.19667 
L 324.538182 110.912787 
L 328.145455 109.662731 
L 331.752727 108.446504 
L 335.36 107.264105 
L 338.967273 106.115535 
L 342.574545 105.000793 
L 346.181818 103.919879 
L 349.789091 102.872793 
L 353.396364 101.859535 
L 357.003636 100.880106 
L 360.610909 99.934505 
L 364.218182 99.022733 
L 367.825455 98.144789 
L 371.432727 97.300673 
L 375.04 96.490385 
L 378.647273 95.713925 
L 382.254545 94.971294 
L 385.861818 94.262491 
L 389.469091 93.587517 
L 393.076364 92.946371 
L 396.683636 92.339053 
L 400.290909 91.765563 
L 403.898182 91.225902 
L 407.505455 90.720068 
L 411.112727 90.248064 
L 414.72 89.809887 
" style="fill:none;stroke:#808080;stroke-linecap:square;stroke-width:2.25;"/>
   </g>
   <g id="patch_10">
    <path d="M 57.6 307.584 
L 57.6 41.472 
" style="fill:none;stroke:#000000;stroke-linecap:square;stroke-linejoin:miter;stroke-width:0.8;"/>
   </g>
   <g id="patch_11">
    <path d="M 414.72 307.584 
L 414.72 41.472 
" style="fill:none;stroke:#000000;stroke-linecap:square;stroke-linejoin:miter;stroke-width:0.8;"/>
   </g>
   <g id="patch_12">
    <path d="M 57.6 307.584 
L 414.72 307.584 
" style="fill:none;stroke:#000000;stroke-linecap:square;stroke-linejoin:miter;stroke-width:0.8;"/>
   </g>
   <g id="patch_13">
    <path d="M 57.6 41.472 
L 414.72 41.472 
" style="fill:none;stroke:#000000;stroke-linecap:square;stroke-linejoin:miter;stroke-width:0.8;"/>
   </g>
   <g id="text_43">
    <!-- Alfabetismo vs. Rank -->
    <defs>
     <path id="DejaVuSans-20"/>
     <path d="M 10.6875 12.40625 
L 21 12.40625 
L 21 0 
L 10.6875 0 
z
" id="DejaVuSans-2e"/>
     <path d="M 44.390625 34.1875 
Q 47.5625 33.109375 50.5625 29.59375 
Q 53.5625 26.078125 56.59375 19.921875 
L 66.609375 0 
L 56 0 
L 46.6875 18.703125 
Q 43.0625 26.03125 39.671875 28.421875 
Q 36.28125 30.8125 30.421875 30.8125 
L 19.671875 30.8125 
L 19.671875 0 
L 9.8125 0 
L 9.8125 72.90625 
L 32.078125 72.90625 
Q 44.578125 72.90625 50.734375 67.671875 
Q 56.890625 62.453125 56.890625 51.90625 
Q 56.890625 45.015625 53.6875 40.46875 
Q 50.484375 35.9375 44.390625 34.1875 
z
M 19.671875 64.796875 
L 19.671875 38.921875 
L 32.078125 38.921875 
Q 39.203125 38.921875 42.84375 42.21875 
Q 46.484375 45.515625 46.484375 51.90625 
Q 46.484375 58.296875 42.84375 61.546875 
Q 39.203125 64.796875 32.078125 64.796875 
z
" id="DejaVuSans-52"/>
     <path d="M 9.078125 75.984375 
L 18.109375 75.984375 
L 18.109375 31.109375 
L 44.921875 54.6875 
L 56.390625 54.6875 
L 27.390625 29.109375 
L 57.625 0 
L 45.90625 0 
L 18.109375 26.703125 
L 18.109375 0 
L 9.078125 0 
z
" id="DejaVuSans-6b"/>
    </defs>
    <g transform="translate(172.92 35.472)scale(0.12 -0.12)">
     <use xlink:href="#DejaVuSans-41"/>
     <use x="68.408203" xlink:href="#DejaVuSans-6c"/>
     <use x="96.191406" xlink:href="#DejaVuSans-66"/>
     <use x="131.396484" xlink:href="#DejaVuSans-61"/>
     <use x="192.675781" xlink:href="#DejaVuSans-62"/>
     <use x="256.152344" xlink:href="#DejaVuSans-65"/>
     <use x="317.675781" xlink:href="#DejaVuSans-74"/>
     <use x="356.884766" xlink:href="#DejaVuSans-69"/>
     <use x="384.667969" xlink:href="#DejaVuSans-73"/>
     <use x="436.767578" xlink:href="#DejaVuSans-6d"/>
     <use x="534.179688" xlink:href="#DejaVuSans-6f"/>
     <use x="595.361328" xlink:href="#DejaVuSans-20"/>
     <use x="627.148438" xlink:href="#DejaVuSans-76"/>
     <use x="686.328125" xlink:href="#DejaVuSans-73"/>
     <use x="738.427734" xlink:href="#DejaVuSans-2e"/>
     <use x="770.214844" xlink:href="#DejaVuSans-20"/>
     <use x="802.001953" xlink:href="#DejaVuSans-52"/>
     <use x="871.453125" xlink:href="#DejaVuSans-61"/>
     <use x="932.732422" xlink:href="#DejaVuSans-6e"/>
     <use x="996.111328" xlink:href="#DejaVuSans-6b"/>
    </g>
   </g>
  </g>
 </g>
 <defs>
  <clipPath id="p89d0ab58b0">
   <rect height="266.112" width="357.12" x="57.6" y="41.472"/>
  </clipPath>
 </defs>
</svg>
